<?xml version="1.0" encoding="UTF-8"?>
<svg version="1.1" xmlns="http://www.w3.org/2000/svg" width="512" height="512">
<path d="M0 0 C2.47453297 0.01072915 4.9483403 0.00003466 7.42285156 -0.01269531 C16.96553395 -0.01982949 26.06092916 0.5748157 35.47753906 2.26074219 C35.47753906 2.92074219 35.47753906 3.58074219 35.47753906 4.26074219 C39.43753906 4.26074219 43.39753906 4.26074219 47.47753906 4.26074219 C47.47753906 4.92074219 47.47753906 5.58074219 47.47753906 6.26074219 C48.11820312 6.24914062 48.75886719 6.23753906 49.41894531 6.22558594 C54.56407129 6.171911 59.4077883 6.3790464 64.47753906 7.26074219 C64.47753906 7.92074219 64.47753906 8.58074219 64.47753906 9.26074219 C65.15816406 9.21949219 65.83878906 9.17824219 66.54003906 9.13574219 C70.12721426 9.28838794 73.04510599 10.19162369 76.47753906 11.26074219 C77.25484375 11.47859375 78.03214844 11.69644531 78.83300781 11.92089844 C83.93097773 13.3672992 88.68368329 15.11532745 93.46972656 17.39355469 C95.45693001 18.251841 97.36684615 18.79695765 99.47753906 19.26074219 C99.47753906 19.92074219 99.47753906 20.58074219 99.47753906 21.26074219 C101.12753906 21.26074219 102.77753906 21.26074219 104.47753906 21.26074219 C104.47753906 21.92074219 104.47753906 22.58074219 104.47753906 23.26074219 C105.38503906 23.38449219 106.29253906 23.50824219 107.22753906 23.63574219 C110.06724229 24.18183896 112.00344497 24.83338021 114.47753906 26.26074219 C114.47753906 26.92074219 114.47753906 27.58074219 114.47753906 28.26074219 C115.56035156 28.44636719 115.56035156 28.44636719 116.66503906 28.63574219 C119.43475801 29.25123529 121.87457446 30.14518593 124.47753906 31.26074219 C124.47753906 31.92074219 124.47753906 32.58074219 124.47753906 33.26074219 C125.06180664 33.38457275 125.64607422 33.50840332 126.24804688 33.63598633 C129.92668784 34.66682757 132.97600449 36.73441365 136.22753906 38.69824219 C137.27361328 39.31022461 137.27361328 39.31022461 138.34082031 39.93457031 C140.09013776 40.98381845 141.78904605 42.11617914 143.47753906 43.26074219 C143.47753906 43.92074219 143.47753906 44.58074219 143.47753906 45.26074219 C144.46753906 45.26074219 145.45753906 45.26074219 146.47753906 45.26074219 C146.47753906 45.92074219 146.47753906 46.58074219 146.47753906 47.26074219 C147.79753906 47.59074219 149.11753906 47.92074219 150.47753906 48.26074219 C150.47753906 48.92074219 150.47753906 49.58074219 150.47753906 50.26074219 C151.46753906 50.26074219 152.45753906 50.26074219 153.47753906 50.26074219 C153.47753906 50.92074219 153.47753906 51.58074219 153.47753906 52.26074219 C154.13753906 52.26074219 154.79753906 52.26074219 155.47753906 52.26074219 C155.47753906 52.92074219 155.47753906 53.58074219 155.47753906 54.26074219 C156.46753906 54.59074219 157.45753906 54.92074219 158.47753906 55.26074219 C158.47753906 55.92074219 158.47753906 56.58074219 158.47753906 57.26074219 C159.79753906 57.26074219 161.11753906 57.26074219 162.47753906 57.26074219 C164.22753906 58.63574219 164.22753906 58.63574219 165.47753906 60.26074219 C165.47753906 60.92074219 165.47753906 61.58074219 165.47753906 62.26074219 C166.13753906 62.26074219 166.79753906 62.26074219 167.47753906 62.26074219 C167.47753906 62.92074219 167.47753906 63.58074219 167.47753906 64.26074219 C168.13753906 64.26074219 168.79753906 64.26074219 169.47753906 64.26074219 C171.10253906 65.63574219 171.10253906 65.63574219 172.47753906 67.26074219 C172.47753906 67.92074219 172.47753906 68.58074219 172.47753906 69.26074219 C173.07050781 69.35484375 173.66347656 69.44894531 174.27441406 69.54589844 C176.96896548 70.42019437 177.94076663 71.52794536 179.72753906 73.69824219 C180.24832031 74.31570312 180.76910156 74.93316406 181.30566406 75.56933594 C182.47753906 77.26074219 182.47753906 77.26074219 182.47753906 79.26074219 C183.13753906 79.26074219 183.79753906 79.26074219 184.47753906 79.26074219 C184.47753906 79.92074219 184.47753906 80.58074219 184.47753906 81.26074219 C185.13753906 81.26074219 185.79753906 81.26074219 186.47753906 81.26074219 C188.10253906 82.63574219 188.10253906 82.63574219 189.47753906 84.26074219 C189.47753906 84.92074219 189.47753906 85.58074219 189.47753906 86.26074219 C190.13753906 86.26074219 190.79753906 86.26074219 191.47753906 86.26074219 C194.47753906 89.72228065 194.47753906 89.72228065 194.47753906 92.26074219 C195.13753906 92.26074219 195.79753906 92.26074219 196.47753906 92.26074219 C196.47753906 93.25074219 196.47753906 94.24074219 196.47753906 95.26074219 C197.46753906 95.59074219 198.45753906 95.92074219 199.47753906 96.26074219 C199.47753906 96.92074219 199.47753906 97.58074219 199.47753906 98.26074219 C200.13753906 98.26074219 200.79753906 98.26074219 201.47753906 98.26074219 C201.47753906 99.25074219 201.47753906 100.24074219 201.47753906 101.26074219 C202.13753906 101.26074219 202.79753906 101.26074219 203.47753906 101.26074219 C203.80753906 102.58074219 204.13753906 103.90074219 204.47753906 105.26074219 C205.13753906 105.26074219 205.79753906 105.26074219 206.47753906 105.26074219 C206.47753906 106.25074219 206.47753906 107.24074219 206.47753906 108.26074219 C207.13753906 108.26074219 207.79753906 108.26074219 208.47753906 108.26074219 C211.47753906 112.64535757 211.47753906 112.64535757 211.47753906 115.26074219 C212.13753906 115.26074219 212.79753906 115.26074219 213.47753906 115.26074219 C213.47753906 116.58074219 213.47753906 117.90074219 213.47753906 119.26074219 C214.13753906 119.26074219 214.79753906 119.26074219 215.47753906 119.26074219 C215.80753906 120.91074219 216.13753906 122.56074219 216.47753906 124.26074219 C217.13753906 124.26074219 217.79753906 124.26074219 218.47753906 124.26074219 C218.47753906 125.25074219 218.47753906 126.24074219 218.47753906 127.26074219 C219.13753906 127.26074219 219.79753906 127.26074219 220.47753906 127.26074219 C222.51189437 130.99039358 223.47753906 132.9297926 223.47753906 137.26074219 C224.13753906 137.26074219 224.79753906 137.26074219 225.47753906 137.26074219 C225.47753906 138.25074219 225.47753906 139.24074219 225.47753906 140.26074219 C226.13753906 140.26074219 226.79753906 140.26074219 227.47753906 140.26074219 C227.80753906 142.90074219 228.13753906 145.54074219 228.47753906 148.26074219 C229.13753906 148.26074219 229.79753906 148.26074219 230.47753906 148.26074219 C232.7290406 150.51224372 232.92419265 151.4677364 233.54003906 154.51074219 C233.70375 155.30867187 233.86746094 156.10660156 234.03613281 156.92871094 C234.56064071 159.69978364 235.04868781 162.47320907 235.47753906 165.26074219 C236.13753906 165.26074219 236.79753906 165.26074219 237.47753906 165.26074219 C239.44572242 171.08328462 240.87968135 176.09456038 240.47753906 182.26074219 C241.13753906 182.26074219 241.79753906 182.26074219 242.47753906 182.26074219 C242.47753906 184.24074219 242.47753906 186.22074219 242.47753906 188.26074219 C243.13753906 188.26074219 243.79753906 188.26074219 244.47753906 188.26074219 C244.6103125 189.25976562 244.74308594 190.25878906 244.87988281 191.28808594 C245.05648438 192.5784375 245.23308594 193.86878906 245.41503906 195.19824219 C245.5890625 196.48601562 245.76308594 197.77378906 245.94238281 199.10058594 C246.13916329 202.11540532 246.13916329 202.11540532 247.47753906 203.26074219 C247.55012852 205.44713672 247.56127689 207.63574608 247.54003906 209.82324219 C247.53101563 211.02078125 247.52199219 212.21832031 247.51269531 213.45214844 C247.50109375 214.37898437 247.48949219 215.30582031 247.47753906 216.26074219 C248.13753906 216.26074219 248.79753906 216.26074219 249.47753906 216.26074219 C249.538125 217.03160156 249.59871094 217.80246094 249.66113281 218.59667969 C249.78681641 220.10101563 249.78681641 220.10101563 249.91503906 221.63574219 C249.99625 222.63347656 250.07746094 223.63121094 250.16113281 224.65917969 C250.32719532 227.24001832 250.32719532 227.24001832 251.47753906 229.26074219 C251.58906309 232.03740943 251.64166904 234.78813514 251.64550781 237.56542969 C251.64883621 238.39978546 251.65216461 239.23414124 251.65559387 240.09378052 C251.66066585 241.86752776 251.66300211 243.64128458 251.6628418 245.41503906 C251.66500239 248.09033746 251.68308214 250.76520574 251.70214844 253.44042969 C251.73127241 262.56999409 251.49079189 271.30205227 249.47753906 280.26074219 C248.81753906 280.26074219 248.15753906 280.26074219 247.47753906 280.26074219 C247.48914063 281.25976562 247.50074219 282.25878906 247.51269531 283.28808594 C247.52623047 285.22361328 247.52623047 285.22361328 247.54003906 287.19824219 C247.55164063 288.48601562 247.56324219 289.77378906 247.57519531 291.10058594 C247.47753906 294.26074219 247.47753906 294.26074219 246.47753906 295.26074219 C246.08004607 297.60798185 245.73385184 299.96402767 245.41503906 302.32324219 C245.2384375 303.61359375 245.06183594 304.90394531 244.87988281 306.23339844 C244.74710937 307.23242188 244.61433594 308.23144531 244.47753906 309.26074219 C243.81753906 309.26074219 243.15753906 309.26074219 242.47753906 309.26074219 C242.47753906 311.24074219 242.47753906 313.22074219 242.47753906 315.26074219 C241.81753906 315.26074219 241.15753906 315.26074219 240.47753906 315.26074219 C240.42855469 315.98519531 240.37957031 316.70964844 240.32910156 317.45605469 C239.92547754 322.67533086 239.46478099 327.35887877 237.47753906 332.26074219 C236.81753906 332.26074219 236.15753906 332.26074219 235.47753906 332.26074219 C235.35378906 332.94136719 235.23003906 333.62199219 235.10253906 334.32324219 C234.3865303 337.68848339 233.44808781 340.96087644 232.47753906 344.26074219 C231.81753906 344.26074219 231.15753906 344.26074219 230.47753906 344.26074219 C230.35378906 344.96199219 230.23003906 345.66324219 230.10253906 346.38574219 C229.43915561 349.43730606 228.50541951 352.31415156 227.47753906 355.26074219 C226.81753906 355.26074219 226.15753906 355.26074219 225.47753906 355.26074219 C225.47753906 356.58074219 225.47753906 357.90074219 225.47753906 359.26074219 C224.81753906 359.26074219 224.15753906 359.26074219 223.47753906 359.26074219 C223.35378906 360.16824219 223.23003906 361.07574219 223.10253906 362.01074219 C222.55644229 364.85044541 221.90490104 366.7866481 220.47753906 369.26074219 C219.81753906 369.26074219 219.15753906 369.26074219 218.47753906 369.26074219 C218.35378906 369.81761719 218.23003906 370.37449219 218.10253906 370.94824219 C217.41777051 373.48188583 216.48620143 375.83995251 215.47753906 378.26074219 C214.81753906 378.26074219 214.15753906 378.26074219 213.47753906 378.26074219 C213.20941406 378.98261719 212.94128906 379.70449219 212.66503906 380.44824219 C211.47852545 383.25840602 210.20268267 385.74490775 208.47753906 388.26074219 C207.81753906 388.26074219 207.15753906 388.26074219 206.47753906 388.26074219 C206.35378906 388.85886719 206.23003906 389.45699219 206.10253906 390.07324219 C205.47753906 392.26074219 205.47753906 392.26074219 203.47753906 395.26074219 C202.81753906 395.26074219 202.15753906 395.26074219 201.47753906 395.26074219 C201.47753906 396.25074219 201.47753906 397.24074219 201.47753906 398.26074219 C200.81753906 398.26074219 200.15753906 398.26074219 199.47753906 398.26074219 C199.14753906 399.58074219 198.81753906 400.90074219 198.47753906 402.26074219 C197.81753906 402.26074219 197.15753906 402.26074219 196.47753906 402.26074219 C196.47753906 402.92074219 196.47753906 403.58074219 196.47753906 404.26074219 C195.81753906 404.26074219 195.15753906 404.26074219 194.47753906 404.26074219 C194.01347656 405.18886719 194.01347656 405.18886719 193.54003906 406.13574219 C192.85253906 407.51074219 192.16503906 408.88574219 191.47753906 410.26074219 C190.81753906 410.26074219 190.15753906 410.26074219 189.47753906 410.26074219 C189.47753906 410.92074219 189.47753906 411.58074219 189.47753906 412.26074219 C188.81753906 412.26074219 188.15753906 412.26074219 187.47753906 412.26074219 C187.14753906 413.25074219 186.81753906 414.24074219 186.47753906 415.26074219 C185.81753906 415.26074219 185.15753906 415.26074219 184.47753906 415.26074219 C184.47753906 415.92074219 184.47753906 416.58074219 184.47753906 417.26074219 C183.81753906 417.26074219 183.15753906 417.26074219 182.47753906 417.26074219 C182.16816406 418.34355469 182.16816406 418.34355469 181.85253906 419.44824219 C180.00224918 423.23292603 177.87513468 424.78332871 174.47753906 427.26074219 C173.81753906 427.26074219 173.15753906 427.26074219 172.47753906 427.26074219 C172.47753906 427.92074219 172.47753906 428.58074219 172.47753906 429.26074219 C171.81753906 429.26074219 171.15753906 429.26074219 170.47753906 429.26074219 C170.14753906 430.25074219 169.81753906 431.24074219 169.47753906 432.26074219 C168.81753906 432.26074219 168.15753906 432.26074219 167.47753906 432.26074219 C167.47753906 432.92074219 167.47753906 433.58074219 167.47753906 434.26074219 C166.81753906 434.26074219 166.15753906 434.26074219 165.47753906 434.26074219 C165.47753906 434.92074219 165.47753906 435.58074219 165.47753906 436.26074219 C164.81753906 436.26074219 164.15753906 436.26074219 163.47753906 436.26074219 C163.47753906 436.92074219 163.47753906 437.58074219 163.47753906 438.26074219 C161.82753906 438.59074219 160.17753906 438.92074219 158.47753906 439.26074219 C158.39503906 439.85886719 158.31253906 440.45699219 158.22753906 441.07324219 C157.2545948 443.9109963 156.03304593 444.75750285 153.47753906 446.26074219 C152.48753906 446.26074219 151.49753906 446.26074219 150.47753906 446.26074219 C150.47753906 446.92074219 150.47753906 447.58074219 150.47753906 448.26074219 C146.09292368 451.26074219 146.09292368 451.26074219 143.47753906 451.26074219 C143.47753906 451.92074219 143.47753906 452.58074219 143.47753906 453.26074219 C140.31400136 455.43002518 137.06506036 456.92823428 133.47753906 458.26074219 C133.47753906 458.92074219 133.47753906 459.58074219 133.47753906 460.26074219 C132.15753906 460.26074219 130.83753906 460.26074219 129.47753906 460.26074219 C129.47753906 460.92074219 129.47753906 461.58074219 129.47753906 462.26074219 C127.82753906 462.59074219 126.17753906 462.92074219 124.47753906 463.26074219 C124.47753906 463.92074219 124.47753906 464.58074219 124.47753906 465.26074219 C123.48753906 465.26074219 122.49753906 465.26074219 121.47753906 465.26074219 C121.47753906 465.92074219 121.47753906 466.58074219 121.47753906 467.26074219 C119.89554275 467.90984373 118.31188182 468.55488913 116.72753906 469.19824219 C115.84582031 469.55789063 114.96410156 469.91753906 114.05566406 470.28808594 C111.86567802 471.11430794 109.75855635 471.75444162 107.47753906 472.26074219 C107.47753906 472.92074219 107.47753906 473.58074219 107.47753906 474.26074219 C105.16753906 474.59074219 102.85753906 474.92074219 100.47753906 475.26074219 C100.47753906 475.92074219 100.47753906 476.58074219 100.47753906 477.26074219 C98.82753906 477.26074219 97.17753906 477.26074219 95.47753906 477.26074219 C95.47753906 477.92074219 95.47753906 478.58074219 95.47753906 479.26074219 C94.6203125 479.5146875 93.76308594 479.76863281 92.87988281 480.03027344 C85.75612956 482.15510375 85.75612956 482.15510375 78.85253906 484.88574219 C74.85386648 486.51483102 70.9879847 487.17056398 66.73535156 487.83105469 C64.51685413 488.03394662 64.51685413 488.03394662 63.47753906 489.26074219 C61.14420573 489.59407552 58.8108724 489.92740885 56.47753906 490.26074219 C56.14753906 490.59074219 55.81753906 490.92074219 55.47753906 491.26074219 C52.49765436 491.6365306 49.52817945 491.96765256 46.54003906 492.26074219 C44.88473673 492.42385127 43.22976485 492.59036013 41.57519531 492.76074219 C40.83793213 492.83292969 40.10066895 492.90511719 39.34106445 492.97949219 C37.38997831 493.17588627 37.38997831 493.17588627 35.47753906 494.26074219 C33.9560558 494.34446878 32.43098128 494.36804245 30.90722656 494.35839844 C29.56337891 494.35356445 29.56337891 494.35356445 28.19238281 494.34863281 C27.25523437 494.34025391 26.31808594 494.331875 25.35253906 494.32324219 C24.40765625 494.31873047 23.46277344 494.31421875 22.48925781 494.30957031 C20.15195519 494.29776575 17.81477845 494.28129977 15.47753906 494.26074219 C15.47753906 494.92074219 15.47753906 495.58074219 15.47753906 496.26074219 C10.14420573 496.26074219 4.8108724 496.26074219 -0.52246094 496.26074219 C-0.52246094 495.60074219 -0.52246094 494.94074219 -0.52246094 494.26074219 C-10.42246094 494.26074219 -20.32246094 494.26074219 -30.52246094 494.26074219 C-30.52246094 493.60074219 -30.52246094 492.94074219 -30.52246094 492.26074219 C-31.29589844 492.27234375 -32.06933594 492.28394531 -32.86621094 492.29589844 C-48.22033569 492.42891684 -48.22033569 492.42891684 -55.40527344 489.01855469 C-59.25029337 487.64229294 -63.3026903 487.29684773 -67.33886719 486.78808594 C-70.56163317 486.25425354 -73.45582224 485.3721105 -76.52246094 484.26074219 C-76.52246094 483.60074219 -76.52246094 482.94074219 -76.52246094 482.26074219 C-77.63621094 482.32261719 -77.63621094 482.32261719 -78.77246094 482.38574219 C-81.70193085 482.25258446 -82.96290311 481.57930228 -85.52246094 480.26074219 C-86.53308594 480.09574219 -87.54371094 479.93074219 -88.58496094 479.76074219 C-91.52246094 479.26074219 -91.52246094 479.26074219 -94.52246094 477.26074219 C-94.52246094 476.60074219 -94.52246094 475.94074219 -94.52246094 475.26074219 C-95.45058594 475.21949219 -96.37871094 475.17824219 -97.33496094 475.13574219 C-102.11118828 474.49241361 -105.87426764 472.04666639 -109.97167969 469.63574219 C-112.21665204 468.42558864 -114.03493203 467.72678976 -116.52246094 467.26074219 C-116.52246094 466.60074219 -116.52246094 465.94074219 -116.52246094 465.26074219 C-117.51246094 465.26074219 -118.50246094 465.26074219 -119.52246094 465.26074219 C-119.52246094 464.60074219 -119.52246094 463.94074219 -119.52246094 463.26074219 C-121.17246094 462.93074219 -122.82246094 462.60074219 -124.52246094 462.26074219 C-124.52246094 461.60074219 -124.52246094 460.94074219 -124.52246094 460.26074219 C-125.84246094 460.26074219 -127.16246094 460.26074219 -128.52246094 460.26074219 C-128.85246094 459.60074219 -129.18246094 458.94074219 -129.52246094 458.26074219 C-132.42296923 456.3793314 -135.40903089 454.7598011 -138.52246094 453.26074219 C-138.52246094 452.60074219 -138.52246094 451.94074219 -138.52246094 451.26074219 C-139.30621094 450.95136719 -140.08996094 450.64199219 -140.89746094 450.32324219 C-143.52246094 449.26074219 -143.52246094 449.26074219 -145.52246094 448.26074219 C-145.52246094 447.60074219 -145.52246094 446.94074219 -145.52246094 446.26074219 C-146.09996094 446.17824219 -146.67746094 446.09574219 -147.27246094 446.01074219 C-150.17639454 445.04276432 -151.55986698 443.57379935 -153.52246094 441.26074219 C-153.52246094 440.60074219 -153.52246094 439.94074219 -153.52246094 439.26074219 C-155.17246094 438.93074219 -156.82246094 438.60074219 -158.52246094 438.26074219 C-158.52246094 437.60074219 -158.52246094 436.94074219 -158.52246094 436.26074219 C-159.18246094 436.26074219 -159.84246094 436.26074219 -160.52246094 436.26074219 C-160.52246094 435.60074219 -160.52246094 434.94074219 -160.52246094 434.26074219 C-161.18246094 434.26074219 -161.84246094 434.26074219 -162.52246094 434.26074219 C-162.52246094 433.60074219 -162.52246094 432.94074219 -162.52246094 432.26074219 C-163.51246094 431.93074219 -164.50246094 431.60074219 -165.52246094 431.26074219 C-165.52246094 430.60074219 -165.52246094 429.94074219 -165.52246094 429.26074219 C-166.18246094 429.26074219 -166.84246094 429.26074219 -167.52246094 429.26074219 C-167.52246094 428.60074219 -167.52246094 427.94074219 -167.52246094 427.26074219 C-168.51246094 426.93074219 -169.50246094 426.60074219 -170.52246094 426.26074219 C-170.52246094 425.60074219 -170.52246094 424.94074219 -170.52246094 424.26074219 C-171.18246094 424.26074219 -171.84246094 424.26074219 -172.52246094 424.26074219 C-172.52246094 423.60074219 -172.52246094 422.94074219 -172.52246094 422.26074219 C-173.84246094 421.93074219 -175.16246094 421.60074219 -176.52246094 421.26074219 C-176.85246094 419.94074219 -177.18246094 418.62074219 -177.52246094 417.26074219 C-178.18246094 417.26074219 -178.84246094 417.26074219 -179.52246094 417.26074219 C-179.52246094 416.60074219 -179.52246094 415.94074219 -179.52246094 415.26074219 C-180.51246094 414.93074219 -181.50246094 414.60074219 -182.52246094 414.26074219 C-182.52246094 413.60074219 -182.52246094 412.94074219 -182.52246094 412.26074219 C-183.18246094 412.26074219 -183.84246094 412.26074219 -184.52246094 412.26074219 C-184.52246094 411.60074219 -184.52246094 410.94074219 -184.52246094 410.26074219 C-185.18246094 410.26074219 -185.84246094 410.26074219 -186.52246094 410.26074219 C-188.81894743 407.69927649 -189.52246094 406.78106647 -189.52246094 403.26074219 C-190.84246094 402.93074219 -192.16246094 402.60074219 -193.52246094 402.26074219 C-193.85246094 400.94074219 -194.18246094 399.62074219 -194.52246094 398.26074219 C-195.18246094 398.26074219 -195.84246094 398.26074219 -196.52246094 398.26074219 C-196.52246094 397.27074219 -196.52246094 396.28074219 -196.52246094 395.26074219 C-197.18246094 395.26074219 -197.84246094 395.26074219 -198.52246094 395.26074219 C-201.52246094 390.8761268 -201.52246094 390.8761268 -201.52246094 388.26074219 C-202.18246094 388.26074219 -202.84246094 388.26074219 -203.52246094 388.26074219 C-204.81152344 386.58105469 -204.81152344 386.58105469 -206.14746094 384.38574219 C-206.59347656 383.66644531 -207.03949219 382.94714844 -207.49902344 382.20605469 C-208.52246094 380.26074219 -208.52246094 380.26074219 -208.52246094 378.26074219 C-209.18246094 378.26074219 -209.84246094 378.26074219 -210.52246094 378.26074219 C-213.52246094 372.63574219 -213.52246094 372.63574219 -213.52246094 369.26074219 C-214.18246094 369.26074219 -214.84246094 369.26074219 -215.52246094 369.26074219 C-217.55681624 365.53109079 -218.52246094 363.59169177 -218.52246094 359.26074219 C-219.18246094 359.26074219 -219.84246094 359.26074219 -220.52246094 359.26074219 C-220.52246094 357.94074219 -220.52246094 356.62074219 -220.52246094 355.26074219 C-221.18246094 355.26074219 -221.84246094 355.26074219 -222.52246094 355.26074219 C-225.52246094 348.76074219 -225.52246094 348.76074219 -225.52246094 344.26074219 C-226.18246094 344.26074219 -226.84246094 344.26074219 -227.52246094 344.26074219 C-230.95103237 335.83217076 -230.95103237 335.83217076 -230.52246094 331.26074219 C-231.18246094 331.26074219 -231.84246094 331.26074219 -232.52246094 331.26074219 C-232.52246094 329.61074219 -232.52246094 327.96074219 -232.52246094 326.26074219 C-233.18246094 326.26074219 -233.84246094 326.26074219 -234.52246094 326.26074219 C-234.85246094 322.63074219 -235.18246094 319.00074219 -235.52246094 315.26074219 C-236.18246094 315.26074219 -236.84246094 315.26074219 -237.52246094 315.26074219 C-237.85246094 313.28074219 -238.18246094 311.30074219 -238.52246094 309.26074219 C-238.85246094 309.26074219 -239.18246094 309.26074219 -239.52246094 309.26074219 C-239.65523437 308.11734375 -239.78800781 306.97394531 -239.92480469 305.79589844 C-240.10296404 304.30498599 -240.28136176 302.81410201 -240.45996094 301.32324219 C-240.54697266 300.56849609 -240.63398438 299.81375 -240.72363281 299.03613281 C-240.86570193 295.33886761 -240.86570193 295.33886761 -242.52246094 292.26074219 C-242.59490147 290.2411002 -242.60623282 288.21907095 -242.58496094 286.19824219 C-242.5759375 285.09351563 -242.56691406 283.98878906 -242.55761719 282.85058594 C-242.54021484 281.56861328 -242.54021484 281.56861328 -242.52246094 280.26074219 C-243.18246094 280.26074219 -243.84246094 280.26074219 -244.52246094 280.26074219 C-244.58304688 279.48988281 -244.64363281 278.71902344 -244.70605469 277.92480469 C-244.78984375 276.92191406 -244.87363281 275.91902344 -244.95996094 274.88574219 C-245.04117188 273.88800781 -245.12238281 272.89027344 -245.20605469 271.86230469 C-245.3721172 269.28146606 -245.3721172 269.28146606 -246.52246094 267.26074219 C-246.62154984 264.4398869 -246.66228341 261.64425211 -246.65527344 258.82324219 C-246.65623016 257.98736572 -246.65718689 257.15148926 -246.65817261 256.2902832 C-246.65885361 254.52164637 -246.65700485 252.75300704 -246.65283203 250.984375 C-246.64748265 248.27175298 -246.65277968 245.55929654 -246.65917969 242.84667969 C-246.65851889 241.13053349 -246.6572377 239.41438739 -246.65527344 237.69824219 C-246.65729767 236.88363525 -246.6593219 236.06902832 -246.66140747 235.22973633 C-246.63742058 229.49066147 -246.63742058 229.49066147 -245.52246094 227.26074219 C-245.29495943 225.39017427 -245.11283283 223.51388261 -244.95996094 221.63574219 C-244.87617188 220.63285156 -244.79238281 219.62996094 -244.70605469 218.59667969 C-244.64546875 217.82582031 -244.58488281 217.05496094 -244.52246094 216.26074219 C-243.86246094 216.26074219 -243.20246094 216.26074219 -242.52246094 216.26074219 C-242.5340625 215.33390625 -242.54566406 214.40707031 -242.55761719 213.45214844 C-242.56664062 212.25460938 -242.57566406 211.05707031 -242.58496094 209.82324219 C-242.60236328 208.03080078 -242.60236328 208.03080078 -242.62011719 206.20214844 C-242.52246094 203.26074219 -242.52246094 203.26074219 -241.52246094 202.26074219 C-241.12496794 199.91350252 -240.77877371 197.5574567 -240.45996094 195.19824219 C-240.28335938 193.90789062 -240.10675781 192.61753906 -239.92480469 191.28808594 C-239.79203125 190.2890625 -239.65925781 189.29003906 -239.52246094 188.26074219 C-238.86246094 188.26074219 -238.20246094 188.26074219 -237.52246094 188.26074219 C-237.52246094 186.28074219 -237.52246094 184.30074219 -237.52246094 182.26074219 C-236.86246094 182.26074219 -236.20246094 182.26074219 -235.52246094 182.26074219 C-235.58433594 181.31199219 -235.64621094 180.36324219 -235.70996094 179.38574219 C-235.74056635 174.41746387 -234.09821636 169.92235199 -232.52246094 165.26074219 C-231.86246094 165.26074219 -231.20246094 165.26074219 -230.52246094 165.26074219 C-230.39871094 164.45636719 -230.27496094 163.65199219 -230.14746094 162.82324219 C-229.83808594 161.05980469 -229.83808594 161.05980469 -229.52246094 159.26074219 C-229.4 158.49117187 -229.27753906 157.72160156 -229.15136719 156.92871094 C-229.00570312 156.13078125 -228.86003906 155.33285156 -228.70996094 154.51074219 C-228.57976562 153.75277344 -228.44957031 152.99480469 -228.31542969 152.21386719 C-227.52246094 150.26074219 -227.52246094 150.26074219 -225.49511719 149.25292969 C-224.51865234 148.76179688 -224.51865234 148.76179688 -223.52246094 148.26074219 C-222.82613879 146.30708773 -222.82613879 146.30708773 -222.77246094 144.13574219 C-222.68996094 142.85699219 -222.60746094 141.57824219 -222.52246094 140.26074219 C-221.86246094 140.26074219 -221.20246094 140.26074219 -220.52246094 140.26074219 C-220.52246094 139.27074219 -220.52246094 138.28074219 -220.52246094 137.26074219 C-219.86246094 137.26074219 -219.20246094 137.26074219 -218.52246094 137.26074219 C-218.39871094 136.35324219 -218.27496094 135.44574219 -218.14746094 134.51074219 C-217.60136416 131.67103896 -216.94982291 129.73483628 -215.52246094 127.26074219 C-214.86246094 127.26074219 -214.20246094 127.26074219 -213.52246094 127.26074219 C-213.52246094 126.27074219 -213.52246094 125.28074219 -213.52246094 124.26074219 C-212.86246094 124.26074219 -212.20246094 124.26074219 -211.52246094 124.26074219 C-211.19246094 122.61074219 -210.86246094 120.96074219 -210.52246094 119.26074219 C-209.86246094 119.26074219 -209.20246094 119.26074219 -208.52246094 119.26074219 C-208.52246094 117.94074219 -208.52246094 116.62074219 -208.52246094 115.26074219 C-207.86246094 115.26074219 -207.20246094 115.26074219 -206.52246094 115.26074219 C-206.21308594 114.47699219 -205.90371094 113.69324219 -205.58496094 112.88574219 C-204.52246094 110.26074219 -204.52246094 110.26074219 -203.52246094 108.26074219 C-202.86246094 108.26074219 -202.20246094 108.26074219 -201.52246094 108.26074219 C-201.52246094 107.27074219 -201.52246094 106.28074219 -201.52246094 105.26074219 C-200.86246094 105.26074219 -200.20246094 105.26074219 -199.52246094 105.26074219 C-199.02746094 103.28074219 -199.02746094 103.28074219 -198.52246094 101.26074219 C-197.86246094 101.26074219 -197.20246094 101.26074219 -196.52246094 101.26074219 C-196.52246094 100.27074219 -196.52246094 99.28074219 -196.52246094 98.26074219 C-195.86246094 98.26074219 -195.20246094 98.26074219 -194.52246094 98.26074219 C-194.02746094 96.77574219 -194.02746094 96.77574219 -193.52246094 95.26074219 C-192.86246094 95.26074219 -192.20246094 95.26074219 -191.52246094 95.26074219 C-191.52246094 94.27074219 -191.52246094 93.28074219 -191.52246094 92.26074219 C-190.86246094 92.26074219 -190.20246094 92.26074219 -189.52246094 92.26074219 C-189.21308594 91.64199219 -188.90371094 91.02324219 -188.58496094 90.38574219 C-187.89746094 89.01074219 -187.20996094 87.63574219 -186.52246094 86.26074219 C-185.86246094 86.26074219 -185.20246094 86.26074219 -184.52246094 86.26074219 C-184.52246094 85.60074219 -184.52246094 84.94074219 -184.52246094 84.26074219 C-183.14746094 82.63574219 -183.14746094 82.63574219 -181.52246094 81.26074219 C-180.86246094 81.26074219 -180.20246094 81.26074219 -179.52246094 81.26074219 C-179.52246094 80.60074219 -179.52246094 79.94074219 -179.52246094 79.26074219 C-178.86246094 79.26074219 -178.20246094 79.26074219 -177.52246094 79.26074219 C-177.29558594 78.53886719 -177.06871094 77.81699219 -176.83496094 77.07324219 C-175.2496612 73.67617132 -173.36322771 71.68578699 -170.52246094 69.26074219 C-169.53246094 69.26074219 -168.54246094 69.26074219 -167.52246094 69.26074219 C-167.52246094 68.60074219 -167.52246094 67.94074219 -167.52246094 67.26074219 C-166.14746094 65.63574219 -166.14746094 65.63574219 -164.52246094 64.26074219 C-163.86246094 64.26074219 -163.20246094 64.26074219 -162.52246094 64.26074219 C-162.52246094 63.60074219 -162.52246094 62.94074219 -162.52246094 62.26074219 C-161.86246094 62.26074219 -161.20246094 62.26074219 -160.52246094 62.26074219 C-160.52246094 61.60074219 -160.52246094 60.94074219 -160.52246094 60.26074219 C-159.27246094 58.63574219 -159.27246094 58.63574219 -157.52246094 57.26074219 C-156.20246094 57.26074219 -154.88246094 57.26074219 -153.52246094 57.26074219 C-153.19246094 56.27074219 -152.86246094 55.28074219 -152.52246094 54.26074219 C-151.86246094 54.26074219 -151.20246094 54.26074219 -150.52246094 54.26074219 C-150.52246094 53.60074219 -150.52246094 52.94074219 -150.52246094 52.26074219 C-149.86246094 52.26074219 -149.20246094 52.26074219 -148.52246094 52.26074219 C-148.52246094 51.60074219 -148.52246094 50.94074219 -148.52246094 50.26074219 C-147.53246094 50.26074219 -146.54246094 50.26074219 -145.52246094 50.26074219 C-145.52246094 49.60074219 -145.52246094 48.94074219 -145.52246094 48.26074219 C-144.20246094 47.93074219 -142.88246094 47.60074219 -141.52246094 47.26074219 C-141.52246094 46.60074219 -141.52246094 45.94074219 -141.52246094 45.26074219 C-140.53246094 45.26074219 -139.54246094 45.26074219 -138.52246094 45.26074219 C-138.52246094 44.60074219 -138.52246094 43.94074219 -138.52246094 43.26074219 C-136.29199219 41.63964844 -136.29199219 41.63964844 -133.33496094 39.82324219 C-132.37203125 39.22640625 -131.40910156 38.62957031 -130.41699219 38.01464844 C-129.46179688 37.43585937 -128.50660156 36.85707031 -127.52246094 36.26074219 C-126.63945313 35.69226562 -125.75644531 35.12378906 -124.84667969 34.53808594 C-122.52246094 33.26074219 -122.52246094 33.26074219 -119.52246094 33.26074219 C-119.52246094 32.60074219 -119.52246094 31.94074219 -119.52246094 31.26074219 C-112.89746094 28.26074219 -112.89746094 28.26074219 -109.52246094 28.26074219 C-109.52246094 27.60074219 -109.52246094 26.94074219 -109.52246094 26.26074219 C-102.89746094 23.26074219 -102.89746094 23.26074219 -99.52246094 23.26074219 C-99.52246094 22.60074219 -99.52246094 21.94074219 -99.52246094 21.26074219 C-97.87246094 21.26074219 -96.22246094 21.26074219 -94.52246094 21.26074219 C-94.52246094 20.60074219 -94.52246094 19.94074219 -94.52246094 19.26074219 C-93.72582031 19.00679687 -92.92917969 18.75285156 -92.10839844 18.49121094 C-85.63271722 16.43170677 -85.63271722 16.43170677 -79.45996094 13.63574219 C-75.66548168 11.85960296 -71.9381223 11.32469009 -67.81542969 10.69042969 C-65.56572402 10.49226154 -65.56572402 10.49226154 -64.52246094 9.26074219 C-62.85628979 9.22010387 -61.18857999 9.21802119 -59.52246094 9.26074219 C-59.52246094 8.60074219 -59.52246094 7.94074219 -59.52246094 7.26074219 C-53.81555459 6.26823674 -48.30837604 6.15596706 -42.52246094 6.26074219 C-42.52246094 5.60074219 -42.52246094 4.94074219 -42.52246094 4.26074219 C-38.56246094 4.26074219 -34.60246094 4.26074219 -30.52246094 4.26074219 C-30.52246094 3.60074219 -30.52246094 2.94074219 -30.52246094 2.26074219 C-20.27910335 0.42679685 -10.37777585 -0.05338785 0 0 Z " fill="#4CAF50" transform="translate(253.5224609375,6.7392578125)"/>
<path d="M0 0 C2.74423444 1.28635989 3.66083163 2.18868071 5 4.9375 C4.79552441 11.17400539 3.55923266 17.37826734 -1 21.9375 C-1.67940467 24.36465206 -1.67940467 24.36465206 -2.125 27.0625 C-2.29257813 27.97257812 -2.46015625 28.88265625 -2.6328125 29.8203125 C-2.75398438 30.51898438 -2.87515625 31.21765625 -3 31.9375 C-3.66 31.9375 -4.32 31.9375 -5 31.9375 C-5.0825 32.741875 -5.165 33.54625 -5.25 34.375 C-6.20196675 38.89684205 -8.01580179 42.78452701 -10 46.9375 C-10.66 46.9375 -11.32 46.9375 -12 46.9375 C-12.0825 47.72125 -12.165 48.505 -12.25 49.3125 C-13.06674269 53.26008967 -14.40441004 56.67896215 -15.9453125 60.390625 C-17.38787938 63.87415688 -18.69058189 67.4020711 -20 70.9375 C-20.66 70.9375 -21.32 70.9375 -22 70.9375 C-22.33 74.2375 -22.66 77.5375 -23 80.9375 C-15.74 80.9375 -8.48 80.9375 -1 80.9375 C-0.67 77.9675 -0.34 74.9975 0 71.9375 C1.375 69.6875 1.375 69.6875 3 67.9375 C5.62044187 64.05924603 6.79687831 60.44920634 8 55.9375 C9.67386614 50.4318921 11.69013719 45.18987227 14.08203125 39.95703125 C15.13237791 37.64626861 16.08377766 35.30440772 17 32.9375 C18.11375 33.1025 19.2275 33.2675 20.375 33.4375 C31.83468317 34.81428172 39.92734555 33.82013445 49.19140625 26.6328125 C51.03910355 24.9008457 52.27363112 23.1953314 53.625 21.0625 C56 17.9375 56 17.9375 58.8125 17.25 C63.82215571 18.33051398 68.35014078 20.28764078 72 23.9375 C73.68698982 24.69526264 75.39890633 25.39861782 77.125 26.0625 C78.03507813 26.41570312 78.94515625 26.76890625 79.8828125 27.1328125 C80.58148438 27.39835937 81.28015625 27.66390625 82 27.9375 C82.02187378 28.84459717 82.02187378 28.84459717 82.04418945 29.77001953 C82.11909188 32.53479265 82.21561073 35.29841357 82.3125 38.0625 C82.33505859 39.01382813 82.35761719 39.96515625 82.38085938 40.9453125 C82.69758297 49.23771205 84.84064275 54.03022104 90.4375 60.25 C91.58025391 61.54357422 91.58025391 61.54357422 92.74609375 62.86328125 C94.95717957 64.89809333 96.06975514 65.58373468 99 65.9375 C98.91131893 67.31358552 98.80314061 68.68841742 98.6875 70.0625 C98.62949219 70.82820313 98.57148438 71.59390625 98.51171875 72.3828125 C98 74.9375 98 74.9375 95 80.9375 C102.26 80.9375 109.52 80.9375 117 80.9375 C117.33 79.6175 117.66 78.2975 118 76.9375 C118.66152556 74.6027039 119.32741333 72.26913378 120 69.9375 C120.66 69.9375 121.32 69.9375 122 69.9375 C122.20625 68.7 122.4125 67.4625 122.625 66.1875 C124.13770082 59.2707303 127.5957156 53.05095257 131.1484375 46.97265625 C132.30361862 44.21187935 132.43079458 41.66531647 132.625 38.6875 C132.69976562 37.60984375 132.77453125 36.5321875 132.8515625 35.421875 C132.90054688 34.60203125 132.94953125 33.7821875 133 32.9375 C135.88344796 34.2320658 137.81639874 35.54258442 139.92919922 37.88574219 C140.48374786 38.49129944 141.03829651 39.09685669 141.60964966 39.72076416 C142.21026215 40.38525574 142.81087463 41.04974731 143.4296875 41.734375 C152.16367036 51.21928637 161.24733428 60.33646065 170.37402344 69.44189453 C173.15938939 72.22182225 175.93926718 75.00716008 178.71875 77.79296875 C180.50228301 79.57584216 182.28612555 81.358406 184.0703125 83.140625 C184.89427521 83.96661194 185.71823792 84.79259888 186.56716919 85.64361572 C190.23923377 89.30068798 193.87810932 92.7812647 198 95.9375 C199.20085713 97.24012468 200.36999075 98.57296053 201.5 99.9375 C203.43477883 102.20586139 205.1631184 104.06799472 207.5 105.9375 C210.49784656 108.33577725 212.81474157 111.07404859 215.3046875 113.984375 C217.4231094 116.42495323 219.68516033 118.68357716 222 120.9375 C223.66666667 122.60416667 225.33333333 124.27083333 227 125.9375 C227.598125 126.494375 228.19625 127.05125 228.8125 127.625 C230 128.9375 230 128.9375 230 130.9375 C230.66 130.9375 231.32 130.9375 232 130.9375 C233.14353517 132.01173001 234.27635494 133.09916121 235.359375 134.234375 C236.65733753 135.58178373 237.98733356 136.89832796 239.328125 138.203125 C240.14796875 139.00234375 240.9678125 139.8015625 241.8125 140.625 C242.60269531 141.39199219 243.39289063 142.15898437 244.20703125 142.94921875 C246 144.9375 246 144.9375 246 146.9375 C247.65 147.2675 249.3 147.5975 251 147.9375 C251.05014413 152.13263465 251.08606394 156.3276018 251.10986328 160.52294922 C251.1198044 161.94452968 251.13336208 163.36609036 251.15087891 164.78759766 C251.25766624 173.68863592 250.84581683 182.18495708 249 190.9375 C248.34 190.9375 247.68 190.9375 247 190.9375 C247.01160156 191.93652344 247.02320313 192.93554688 247.03515625 193.96484375 C247.04869141 195.90037109 247.04869141 195.90037109 247.0625 197.875 C247.07410156 199.16277344 247.08570313 200.45054687 247.09765625 201.77734375 C247 204.9375 247 204.9375 246 205.9375 C245.602507 208.28473966 245.25631277 210.64078548 244.9375 213 C244.76089844 214.29035156 244.58429688 215.58070313 244.40234375 216.91015625 C244.26957031 217.90917969 244.13679688 218.90820312 244 219.9375 C243.34 219.9375 242.68 219.9375 242 219.9375 C242 221.9175 242 223.8975 242 225.9375 C241.34 225.9375 240.68 225.9375 240 225.9375 C239.95101563 226.66195312 239.90203125 227.38640625 239.8515625 228.1328125 C239.44793848 233.35208867 238.98724193 238.03563658 237 242.9375 C236.34 242.9375 235.68 242.9375 235 242.9375 C234.87625 243.618125 234.7525 244.29875 234.625 245 C233.90899123 248.3652412 232.97054875 251.63763425 232 254.9375 C231.34 254.9375 230.68 254.9375 230 254.9375 C229.87625 255.63875 229.7525 256.34 229.625 257.0625 C228.96161655 260.11406387 228.02788045 262.99090938 227 265.9375 C226.34 265.9375 225.68 265.9375 225 265.9375 C225 267.2575 225 268.5775 225 269.9375 C224.34 269.9375 223.68 269.9375 223 269.9375 C222.87625 270.845 222.7525 271.7525 222.625 272.6875 C222.07890323 275.52720323 221.42736197 277.46340591 220 279.9375 C219.34 279.9375 218.68 279.9375 218 279.9375 C217.87625 280.494375 217.7525 281.05125 217.625 281.625 C216.94023145 284.15864364 216.00866237 286.51671032 215 288.9375 C214.34 288.9375 213.68 288.9375 213 288.9375 C212.731875 289.659375 212.46375 290.38125 212.1875 291.125 C211.00098638 293.93516383 209.72514361 296.42166557 208 298.9375 C207.34 298.9375 206.68 298.9375 206 298.9375 C205.87625 299.535625 205.7525 300.13375 205.625 300.75 C205 302.9375 205 302.9375 203 305.9375 C202.34 305.9375 201.68 305.9375 201 305.9375 C201 306.9275 201 307.9175 201 308.9375 C200.34 308.9375 199.68 308.9375 199 308.9375 C198.67 310.2575 198.34 311.5775 198 312.9375 C197.34 312.9375 196.68 312.9375 196 312.9375 C196 313.5975 196 314.2575 196 314.9375 C195.34 314.9375 194.68 314.9375 194 314.9375 C193.5359375 315.865625 193.5359375 315.865625 193.0625 316.8125 C192.375 318.1875 191.6875 319.5625 191 320.9375 C190.34 320.9375 189.68 320.9375 189 320.9375 C189 321.5975 189 322.2575 189 322.9375 C188.34 322.9375 187.68 322.9375 187 322.9375 C186.67 323.9275 186.34 324.9175 186 325.9375 C185.34 325.9375 184.68 325.9375 184 325.9375 C184 326.5975 184 327.2575 184 327.9375 C183.34 327.9375 182.68 327.9375 182 327.9375 C181.690625 329.0203125 181.690625 329.0203125 181.375 330.125 C179.52471012 333.90968384 177.39759562 335.46008653 174 337.9375 C173.34 337.9375 172.68 337.9375 172 337.9375 C172 338.5975 172 339.2575 172 339.9375 C171.34 339.9375 170.68 339.9375 170 339.9375 C169.67 340.9275 169.34 341.9175 169 342.9375 C168.34 342.9375 167.68 342.9375 167 342.9375 C167 343.5975 167 344.2575 167 344.9375 C166.34 344.9375 165.68 344.9375 165 344.9375 C165 345.5975 165 346.2575 165 346.9375 C164.34 346.9375 163.68 346.9375 163 346.9375 C163 347.5975 163 348.2575 163 348.9375 C161.35 349.2675 159.7 349.5975 158 349.9375 C157.9175 350.535625 157.835 351.13375 157.75 351.75 C156.77705573 354.58775411 155.55550687 355.43426067 153 356.9375 C152.01 356.9375 151.02 356.9375 150 356.9375 C150 357.5975 150 358.2575 150 358.9375 C145.61538462 361.9375 145.61538462 361.9375 143 361.9375 C143 362.5975 143 363.2575 143 363.9375 C139.8364623 366.106783 136.5875213 367.60499209 133 368.9375 C133 369.5975 133 370.2575 133 370.9375 C131.68 370.9375 130.36 370.9375 129 370.9375 C129 371.5975 129 372.2575 129 372.9375 C127.35 373.2675 125.7 373.5975 124 373.9375 C124 374.5975 124 375.2575 124 375.9375 C123.01 375.9375 122.02 375.9375 121 375.9375 C121 376.5975 121 377.2575 121 377.9375 C119.41800369 378.58660154 117.83434276 379.23164694 116.25 379.875 C115.36828125 380.23464844 114.4865625 380.59429687 113.578125 380.96484375 C111.38813896 381.79106576 109.28101729 382.43119943 107 382.9375 C107 383.5975 107 384.2575 107 384.9375 C104.69 385.2675 102.38 385.5975 100 385.9375 C100 386.5975 100 387.2575 100 387.9375 C98.35 387.9375 96.7 387.9375 95 387.9375 C95 388.5975 95 389.2575 95 389.9375 C94.14277344 390.19144531 93.28554688 390.44539063 92.40234375 390.70703125 C85.2785905 392.83186156 85.2785905 392.83186156 78.375 395.5625 C74.37632742 397.19158883 70.51044564 397.84732179 66.2578125 398.5078125 C64.03931507 398.71070443 64.03931507 398.71070443 63 399.9375 C60.66666667 400.27083333 58.33333333 400.60416667 56 400.9375 C55.67 401.2675 55.34 401.5975 55 401.9375 C52.0201153 402.31328842 49.05064039 402.64441037 46.0625 402.9375 C44.40719767 403.10060908 42.75222578 403.26711794 41.09765625 403.4375 C40.36039307 403.5096875 39.62312988 403.581875 38.86352539 403.65625 C36.91243924 403.85264408 36.91243924 403.85264408 35 404.9375 C33.47851674 405.02122659 31.95344222 405.04480027 30.4296875 405.03515625 C29.53378906 405.03193359 28.63789063 405.02871094 27.71484375 405.02539062 C26.77769531 405.01701172 25.84054687 405.00863281 24.875 405 C23.93011719 404.99548828 22.98523438 404.99097656 22.01171875 404.98632812 C19.67441613 404.97452357 17.33723939 404.95805759 15 404.9375 C15 405.5975 15 406.2575 15 406.9375 C7.81218274 407.42480964 7.81218274 407.42480964 4.1875 405.25 C2 402.9375 2 402.9375 0.74609375 400.76953125 C-1.56939503 397.01398457 -4.32011407 393.71099122 -7.125 390.3125 C-7.7039502 389.60609375 -8.28290039 388.8996875 -8.87939453 388.171875 C-10.04398801 386.7512453 -11.20982097 385.3316307 -12.37695312 383.91308594 C-13.79353073 382.18881609 -15.20373115 380.4597458 -16.609375 378.7265625 C-20.44704891 374.00225359 -24.33718503 369.34319232 -28.37109375 364.78515625 C-30.49352219 362.37770145 -32.56834351 359.93111625 -34.640625 357.48046875 C-35.98479454 355.88529264 -35.98479454 355.88529264 -37.671875 354.48828125 C-39 352.9375 -39 352.9375 -39 348.9375 C-39.88945312 348.56625 -39.88945312 348.56625 -40.796875 348.1875 C-43.34828866 346.73988941 -44.51679362 345.2933145 -46.25 342.9375 C-46.85070312 342.13828125 -47.45140625 341.3390625 -48.0703125 340.515625 C-49.02550781 339.23945312 -49.02550781 339.23945312 -50 337.9375 C-54.10733368 332.65887345 -58.20014736 327.60762689 -63 322.9375 C-65.36620437 320.23326643 -67.57310239 317.6748686 -69.375 314.5625 C-71.37915734 311.32501506 -73.83380626 308.6801878 -76.37109375 305.8515625 C-78 303.9375 -78 303.9375 -79.5625 301.3125 C-80.90142984 299.10035505 -82.15605221 297.71382134 -84 295.9375 C-87.16794261 292.87933758 -89.20903511 289.71717101 -91 285.6875 C-91.94279946 283.58612526 -91.94279946 283.58612526 -95 282.9375 C-96.04892238 281.30118108 -97.04906703 279.63264137 -98 277.9375 C-98.66 277.2775 -99.32 276.6175 -100 275.9375 C-100 274.9475 -100 273.9575 -100 272.9375 C-101.11375 272.5971875 -101.11375 272.5971875 -102.25 272.25 C-108.11416894 269.4511921 -110.37716968 263.55984372 -113 257.9375 C-111.8714091 258.09918702 -110.7428182 258.26087404 -109.58002758 258.42746067 C-104.94872038 259.00296081 -100.38190014 259.09149594 -95.71955872 259.09812927 C-94.81786963 259.10321709 -93.91618054 259.10830491 -92.98716754 259.11354691 C-89.98338978 259.12917028 -86.9796359 259.1377692 -83.97583008 259.14624023 C-81.81530102 259.15578612 -79.65477346 259.1656776 -77.49424744 259.17588806 C-70.41936027 259.20716175 -63.34446168 259.22751427 -56.26953125 259.24609375 C-54.46301924 259.25103973 -54.46301924 259.25103973 -52.62001204 259.25608563 C-41.26291731 259.28683942 -29.90581983 259.31354162 -18.54869556 259.33050442 C-4.02645084 259.35245209 10.49542623 259.39454306 25.01752394 259.46394199 C35.23423733 259.5111121 45.45085118 259.53542783 55.66767007 259.5427013 C61.76954759 259.54766409 67.87100967 259.56280772 73.97276878 259.6024456 C79.70619587 259.63920595 85.43896828 259.64775633 91.17249107 259.63443947 C93.27803665 259.63449358 95.38361054 259.64485425 97.489048 259.6661911 C100.36033311 259.69373875 103.22920745 259.68442467 106.10050964 259.66575623 C106.9364971 259.68255115 107.77248456 259.69934608 108.63380498 259.71664995 C112.93325931 259.69379532 112.93325931 259.69379532 116.54855406 257.62558949 C117.77703891 256.12343966 118.89388364 254.53190764 120 252.9375 C121.03125 252.256875 122.0625 251.57625 123.125 250.875 C126.85058029 248.36428285 128.41839716 245.89380045 129.6875 241.625 C129.790625 241.068125 129.89375 240.51125 130 239.9375 C130.66 239.9375 131.32 239.9375 132 239.9375 C132 230.3675 132 220.7975 132 210.9375 C126.04066406 210.98970703 126.04066406 210.98970703 119.9609375 211.04296875 C116.10856851 211.06637219 112.25620747 211.08458437 108.40380859 211.10229492 C105.72850279 211.11567551 103.05367851 211.13783385 100.37841797 211.16381836 C96.53086249 211.20025084 92.68363414 211.21723828 88.8359375 211.23046875 C87.04499161 211.25369453 87.04499161 211.25369453 85.21786499 211.27738953 C79.35057367 211.27857582 75.08284595 211.21855517 70 207.9375 C67.83147159 207.49839056 67.83147159 207.49839056 65.75 207.3125 C58.65209176 205.87373482 53.58568365 200.33272012 49.328125 194.7421875 C48.0966284 192.83698983 46.99426302 190.97573919 46 188.9375 C45.63390625 188.22980469 45.2678125 187.52210938 44.890625 186.79296875 C43.60899942 182.68389726 43.71047925 178.77812087 43.75 174.5 C43.74226562 173.66662109 43.73453125 172.83324219 43.7265625 171.97460938 C43.74155816 167.23223344 44.17442198 163.3927797 46 158.9375 C46.66 158.9375 47.32 158.9375 48 158.9375 C48.061875 157.90625 48.12375 156.875 48.1875 155.8125 C49.19355605 151.01438655 50.57950009 149.35799991 54 145.9375 C54.66 145.9375 55.32 145.9375 56 145.9375 C56 145.2775 56 144.6175 56 143.9375 C64.51866406 136.32072502 76.06161384 135.19480924 86.95703125 135.23046875 C88.22600754 135.21534744 89.49498383 135.20022614 90.80241394 135.18464661 C94.12842657 135.14928955 97.4531371 135.1346387 100.77923584 135.13061523 C104.19218066 135.12118976 107.60481548 135.0837194 111.01757812 135.04882812 C117.67839286 134.98628901 124.33891497 134.95110376 131 134.9375 C131.02901401 130.35417994 131.04680348 125.77088349 131.0625 121.1875 C131.07087891 119.88554687 131.07925781 118.58359375 131.08789062 117.2421875 C131.09111328 115.99179688 131.09433594 114.74140625 131.09765625 113.453125 C131.10289307 112.30102539 131.10812988 111.14892578 131.11352539 109.96191406 C131.01743632 107.40201853 130.89423681 105.32918662 130 102.9375 C129.34 102.6075 128.68 102.2775 128 101.9375 C128 101.2775 128 100.6175 128 99.9375 C127.01 99.6075 126.02 99.2775 125 98.9375 C124.319375 98.03 123.63875 97.1225 122.9375 96.1875 C119.01345223 91.45498701 114.16626545 88.52710867 107.99326515 87.65350747 C102.00083807 87.17515104 95.99292829 87.27099672 89.98632812 87.30981445 C87.95856063 87.30463095 85.93079777 87.29722732 83.90304565 87.28778076 C79.5530616 87.27226232 75.20346307 87.27235561 70.85346985 87.28478432 C63.97978978 87.30436026 57.10645138 87.28910961 50.23278809 87.26933289 C39.36984738 87.24222465 28.50704658 87.2386857 17.64407873 87.24510592 C-1.83655478 87.25606774 -21.31714717 87.23152506 -40.7977376 87.19135827 C-47.63639876 87.17825621 -54.47493215 87.17704583 -61.31359959 87.1854912 C-65.55508579 87.18910341 -69.79653899 87.18483116 -74.03802109 87.1786499 C-76.01096084 87.17756013 -77.9839059 87.17995056 -79.9568367 87.1859951 C-82.64006295 87.19382444 -85.32300428 87.18959681 -88.00622559 87.18232727 C-89.18955829 87.19034527 -89.18955829 87.19034527 -90.3967967 87.19852525 C-95.7718988 87.1656012 -95.7718988 87.1656012 -98 84.9375 C-97.43181818 79.36931818 -97.43181818 79.36931818 -96 77.9375 C-94.65732587 77.85118126 -93.31025678 77.83043527 -91.96484375 77.83984375 C-90.87224243 77.84359009 -90.87224243 77.84359009 -89.75756836 77.84741211 C-88.8269458 77.85651611 -87.89632324 77.86562012 -86.9375 77.875 C-82.5134375 77.9059375 -82.5134375 77.9059375 -78 77.9375 C-78 71.6675 -78 65.3975 -78 58.9375 C-73 60.9375 -73 60.9375 -72 61.9375 C-71.78248379 68.68050257 -72.32066995 75.22911576 -73 81.9375 C-69.7 81.9375 -66.4 81.9375 -63 81.9375 C-62.91363281 81.14730469 -62.82726562 80.35710937 -62.73828125 79.54296875 C-61.43185288 69.05558508 -58.83861356 59.10016992 -56 48.9375 C-55.34 48.9375 -54.68 48.9375 -54 48.9375 C-53.96261719 48.22464844 -53.92523438 47.51179688 -53.88671875 46.77734375 C-53.4771869 40.8110268 -52.49245614 36.42090351 -50 30.9375 C-49.63043229 29.27849168 -49.29939616 27.61059618 -49 25.9375 C-48.20743774 21.60133293 -46.85904391 17.95303484 -45 13.9375 C-43.96619944 11.28251219 -42.98503089 8.61115528 -42 5.9375 C-40 5.9375 -40 5.9375 -37.5 8.3125 C-36.2625 9.611875 -36.2625 9.611875 -35 10.9375 C-34.01 11.9275 -34.01 11.9275 -33 12.9375 C-32.734375 14.9609375 -32.734375 14.9609375 -32.75 17.3125 C-32.74226563 18.46878906 -32.74226563 18.46878906 -32.734375 19.6484375 C-33.02576458 22.15953007 -33.84450697 23.71095381 -35 25.9375 C-35.37434793 28.88390185 -35.37434793 28.88390185 -35.65625 31.83984375 C-36 33.9375 -36 33.9375 -36.9453125 36.2265625 C-38.24811167 39.57523887 -38.77812769 42.83238731 -39.375 46.375 C-40.5292585 52.95056952 -42.16415834 59.25208589 -44.08203125 65.65234375 C-45.39730564 70.35934698 -46.25152055 75.11177721 -47 79.9375 C-44.03 79.9375 -41.06 79.9375 -38 79.9375 C-37.71769531 79.21691406 -37.43539062 78.49632812 -37.14453125 77.75390625 C-36.06145166 75.08871722 -34.89616345 72.48524061 -33.6875 69.875 C-30.63998515 63.21361797 -27.80836436 56.46229152 -25.08984375 49.66015625 C-23.21084724 45.04292362 -23.21084724 45.04292362 -21 43.9375 C-20.34679641 42.02242583 -19.77827582 40.07823032 -19.25 38.125 C-17.57310095 32.41112176 -15.35457535 27.45341104 -12.58203125 22.203125 C-10.39465715 17.68795279 -8.72227879 13.02137689 -7.09228516 8.2800293 C-4.11619214 -0.128631 -4.11619214 -0.128631 0 0 Z " fill="#2B612D" transform="translate(254,96.0625)"/>
<path d="M0 0 C1.06154297 -0.00386719 2.12308594 -0.00773438 3.21679688 -0.01171875 C4.22419922 -0.01042969 5.23160156 -0.00914062 6.26953125 -0.0078125 C7.18968018 -0.00668457 8.1098291 -0.00555664 9.05786133 -0.00439453 C11.1875 0.125 11.1875 0.125 12.1875 1.125 C12.27401611 2.54070123 12.29454904 3.960595 12.28515625 5.37890625 C12.28193359 6.23291016 12.27871094 7.08691406 12.27539062 7.96679688 C12.26282227 9.31354492 12.26282227 9.31354492 12.25 10.6875 C12.24548828 11.58919922 12.24097656 12.49089844 12.23632812 13.41992188 C12.22450244 15.65497589 12.20656638 17.88999602 12.1875 20.125 C3.7725 20.62 3.7725 20.62 -4.8125 21.125 C-5.1425 23.105 -5.4725 25.085 -5.8125 27.125 C-4.04476383 28.89273617 -1.69747852 28.24642124 0.65695989 28.25228184 C1.84363868 28.24760993 1.84363868 28.24760993 3.05429077 28.24284363 C4.30574825 28.2439005 4.30574825 28.2439005 5.5824877 28.24497873 C8.40055236 28.24629546 11.21856208 28.24059654 14.03662109 28.23510742 C16.04845174 28.23486546 18.06028252 28.23514198 20.07211304 28.23590088 C24.41720329 28.23701001 28.76228301 28.23556691 33.10737228 28.23253441 C39.98270631 28.22891072 46.85798499 28.23802382 53.73330688 28.25032043 C55.47244813 28.25335333 55.47244813 28.25335333 57.24672353 28.25644749 C59.61843242 28.26061656 61.99014125 28.26481932 64.36185002 28.26905501 C80.37456627 28.29721227 96.38716404 28.317358 112.39990234 28.30004883 C123.19083477 28.28847939 133.98151997 28.29811967 144.77240813 28.33210641 C150.48331164 28.3492457 156.1937692 28.35557445 161.90467453 28.335989 C167.28436362 28.31770892 172.66328647 28.32745412 178.04291153 28.35824585 C180.01205618 28.36459251 181.98126507 28.36080488 183.95036316 28.34584999 C203.60343477 28.2077342 203.60343477 28.2077342 212.1875 35.125 C214.104325 37.04020953 215.59500523 38.91605564 217.1875 41.125 C217.8475 41.455 218.5075 41.785 219.1875 42.125 C219.1875 42.785 219.1875 43.445 219.1875 44.125 C220.1775 44.455 221.1675 44.785 222.1875 45.125 C223.55964992 48.47349957 223.31679728 52.03475628 223.3203125 55.60546875 C223.32160156 56.85134766 223.32289063 58.09722656 223.32421875 59.38085938 C223.32035156 60.67830078 223.31648438 61.97574219 223.3125 63.3125 C223.31636719 64.62154297 223.32023437 65.93058594 223.32421875 67.27929688 C223.32228516 69.14231445 223.32228516 69.14231445 223.3203125 71.04296875 C223.31918457 72.18531982 223.31805664 73.3276709 223.31689453 74.50463867 C223.1875 77.125 223.1875 77.125 222.1875 78.125 C220.44588333 78.22208682 218.70037513 78.25015945 216.95605469 78.25097656 C215.27730255 78.25668671 215.27730255 78.25668671 213.56463623 78.26251221 C212.34190002 78.26353943 211.11916382 78.26456665 209.859375 78.265625 C207.27863714 78.28397158 204.69790776 78.30354355 202.1171875 78.32421875 C198.04258449 78.35440679 193.9682802 78.37733976 189.89355469 78.37548828 C185.9650079 78.3788493 182.03770391 78.41358247 178.109375 78.453125 C176.91092957 78.4460553 175.71248413 78.4389856 174.47772217 78.43170166 C164.34313192 78.575491 156.13855335 81.52715643 147.1875 86.125 C147.1875 86.785 147.1875 87.445 147.1875 88.125 C146.424375 88.82625 145.66125 89.5275 144.875 90.25 C141.57891811 93.77604109 140.65469365 96.56897762 139.1875 101.125 C138.5275 101.125 137.8675 101.125 137.1875 101.125 C134.93078495 112.72563438 134.21001087 125.25506519 140.4140625 135.66796875 C146.84753571 144.58130498 153.70562926 147.54248043 164.1484375 150.4765625 C166.1875 151.125 166.1875 151.125 167.1875 152.125 C168.93588835 152.2481517 170.68914504 152.30287811 172.44165039 152.33032227 C173.56273697 152.35026749 174.68382355 152.37021271 175.83888245 152.39076233 C177.0586528 152.40747482 178.27842316 152.42418732 179.53515625 152.44140625 C181.3975016 152.4725779 181.3975016 152.4725779 183.29747009 152.50437927 C186.60349123 152.55883609 189.90952245 152.60904205 193.21563721 152.65722656 C196.5871748 152.70739855 199.95862148 152.7630533 203.33007812 152.81835938 C209.94914956 152.92653415 216.56826941 153.02551045 223.1875 153.125 C223.1875 162.695 223.1875 172.265 223.1875 182.125 C222.5275 182.125 221.8675 182.125 221.1875 182.125 C221.084375 182.846875 220.98125 183.56875 220.875 184.3125 C219.37010052 190.46890698 216.40738927 192.79315578 211.1875 196.125 C210.5275 197.115 209.8675 198.105 209.1875 199.125 C208.5275 199.125 207.8675 199.125 207.1875 199.125 C206.8575 200.115 206.5275 201.105 206.1875 202.125 C177.58941761 202.14834505 148.99133665 202.16598709 120.39324665 202.17681217 C107.11510716 202.1819717 93.83697358 202.18900791 80.55883789 202.20043945 C68.98762276 202.21039672 57.41641191 202.21685592 45.84519261 202.21908849 C39.71654079 202.22039382 33.58790121 202.22346849 27.45925331 202.23073006 C21.69328296 202.23750669 15.92732993 202.23961359 10.16135597 202.23810768 C8.04294236 202.23838327 5.92452818 202.24037866 3.80611801 202.24420547 C0.91766504 202.24916832 -1.97072219 202.24798864 -4.85917664 202.24525452 C-5.70062105 202.24816736 -6.54206547 202.2510802 -7.4090082 202.25408131 C-11.34610321 202.24398351 -14.96834825 202.10065797 -18.8125 201.125 C-18.8125 200.465 -18.8125 199.805 -18.8125 199.125 C-19.39257812 199.01800781 -19.97265625 198.91101563 -20.5703125 198.80078125 C-26.81969036 196.91725796 -31.01876893 191.36970335 -34.02377319 185.84698486 C-37.57365867 178.44326412 -37.64653304 171.4021779 -37.55712891 163.38574219 C-37.56199626 161.84031193 -37.56944603 160.294888 -37.57925415 158.7494812 C-37.59791708 154.58828747 -37.57935866 150.42804733 -37.55258989 146.26692867 C-37.52980439 141.89582788 -37.53818749 137.52476869 -37.54208374 133.15362549 C-37.54384405 125.82035912 -37.52180042 118.48746451 -37.48486328 111.15429688 C-37.44247286 102.6902982 -37.43552484 94.22684235 -37.4479872 85.76275897 C-37.45939391 77.59560441 -37.44806453 69.4286399 -37.42564011 61.26151276 C-37.41638015 57.79597693 -37.41458635 54.33055792 -37.4188118 50.86501312 C-37.42259197 46.783707 -37.40626133 42.70294989 -37.37469101 38.62176895 C-37.36624175 37.12868904 -37.36447964 35.63555322 -37.37007141 34.14245987 C-37.40421818 23.39013911 -35.98947137 15.92553541 -28.58203125 7.73046875 C-20.09300584 0.0285053 -10.90165714 -0.04045142 0 0 Z " fill="#FCFDFB" transform="translate(162.8125,153.875)"/>
<path d="M0 0 C3.3 0 6.6 0 10 0 C10 0.66 10 1.32 10 2 C10.78375 1.896875 11.5675 1.79375 12.375 1.6875 C16.75751568 2.06530308 19.51746085 3.59498294 23.359375 5.63671875 C27.44785285 7.74748616 31.71229504 9.34428624 36 11 C37.8758848 11.74778421 39.75091157 12.49772507 41.625 13.25 C42.46289062 13.58515625 43.30078125 13.9203125 44.1640625 14.265625 C44.76992188 14.50796875 45.37578125 14.7503125 46 15 C46 15.66 46 16.32 46 17 C47.216875 17.20625 48.43375 17.4125 49.6875 17.625 C55.1636278 18.81884777 59.92742595 21.18404999 64.95703125 23.6015625 C68.29087781 25.13367684 71.43737636 26.17148287 75 27 C75 27.66 75 28.32 75 29 C76.0209375 29.185625 76.0209375 29.185625 77.0625 29.375 C80.4277412 30.09100877 83.70013425 31.02945125 87 32 C87 32.66 87 33.32 87 34 C87.69867188 34.10054687 88.39734375 34.20109375 89.1171875 34.3046875 C95.73376092 35.9005548 102.31964805 39.6195014 106.25 45.1875 C108.63810293 57.32702324 105.72292014 65.979853 101 77 C99.95086032 79.98453891 98.96340686 82.98679131 98 86 C97.34 86 96.68 86 96 86 C95.814375 87.60875 95.814375 87.60875 95.625 89.25 C95 93 95 93 93 97 C85.74 97 78.48 97 71 97 C71.77594108 93.12029459 72.73440938 89.71767243 74 86 C74.34976758 84.67088318 74.69096017 83.33917261 75 82 C74.319375 81.979375 73.63875 81.95875 72.9375 81.9375 C67.26482742 80.12707258 63.53315585 75.23182852 60.625 70.1875 C58.6626848 66.33834326 57.87655097 64.4925393 57.90234375 60.2109375 C57.90717773 58.79941406 57.90717773 58.79941406 57.91210938 57.359375 C57.92467773 55.88210937 57.92467773 55.88210937 57.9375 54.375 C57.94201172 53.38242188 57.94652344 52.38984375 57.95117188 51.3671875 C57.96297855 48.9113984 57.979446 46.45572896 58 44 C57.31292969 43.81824219 56.62585938 43.63648438 55.91796875 43.44921875 C55.01691406 43.19785156 54.11585938 42.94648437 53.1875 42.6875 C52.29417969 42.44386719 51.40085937 42.20023438 50.48046875 41.94921875 C47.89196309 40.95865674 46.84443893 40.00074731 45 38 C40.62814328 35.77282771 36.92064032 34.01587194 32 35 C29.90356987 37.72689447 29.90356987 37.72689447 28 41 C20.52552568 47.97617603 13.78248883 51.243379 3.6171875 51.16796875 C-0.11658113 50.92833882 -3.41774106 50.06141006 -7 49 C-7.11601562 49.72703125 -7.23203125 50.4540625 -7.3515625 51.203125 C-8.01427509 54.06157207 -8.98669638 56.17532784 -10.375 58.75 C-13.34522808 64.51070173 -15.33122426 70.27712736 -16.875 76.5625 C-18.04314823 80.13184182 -19.57519382 82.61748915 -21.78125 85.6171875 C-23.60294891 88.93258625 -23.60294891 88.93258625 -25 97 C-32.26 97 -39.52 97 -47 97 C-46.67 93.7 -46.34 90.4 -46 87 C-45.34 87 -44.68 87 -44 87 C-43.87367188 86.29617187 -43.74734375 85.59234375 -43.6171875 84.8671875 C-41.99465194 77.32958561 -39.18562346 70.00837161 -36 63 C-35.34 63 -34.68 63 -34 63 C-33.87753906 62.45859375 -33.75507813 61.9171875 -33.62890625 61.359375 C-32.88995118 58.58714603 -31.93073846 55.94135583 -30.9375 53.25 C-30.57527344 52.26515625 -30.21304688 51.2803125 -29.83984375 50.265625 C-29.56269531 49.51796875 -29.28554687 48.7703125 -29 48 C-28.34 48 -27.68 48 -27 48 C-26.96261719 47.31292969 -26.92523438 46.62585938 -26.88671875 45.91796875 C-26.82097656 45.01691406 -26.75523437 44.11585937 -26.6875 43.1875 C-26.62949219 42.29417969 -26.57148438 41.40085938 -26.51171875 40.48046875 C-25.92574983 37.64008503 -25.12319846 36.87631492 -23 35 C-22.31875294 33.00491933 -21.65572791 31.00361307 -21 29 C-20.20681955 27.38619341 -19.39233638 25.78276754 -18.5625 24.1875 C-16.87826761 20.92674776 -15.57315148 17.83774862 -14.5625 14.3125 C-13.08736776 9.67283826 -10.89344261 6.00530708 -7 3 C-3.125 2.0625 -3.125 2.0625 0 2 C0 1.34 0 0.68 0 0 Z " fill="#F9FBF9" transform="translate(278,80)"/>
<path d="M0 0 C1.92533821 -0.00929787 1.92533821 -0.00929787 3.88957214 -0.01878357 C6.58664121 -0.02911456 9.2831801 -0.02472692 11.98022461 -0.01000977 C15.42826146 0.00727132 18.87464619 -0.01646569 22.32249928 -0.05149937 C25.63176409 -0.07876073 28.94062813 -0.06874196 32.25 -0.0625 C33.48337601 -0.07575821 34.71675201 -0.08901642 35.98750305 -0.10267639 C44.27385781 -0.01225628 44.27385781 -0.01225628 48.57104492 2.42773438 C51.12178498 7.07714799 50.97140152 11.18914099 50.88671875 16.4140625 C50.88675903 17.46291122 50.88679932 18.51175995 50.88684082 19.59239197 C50.88148809 21.80555222 50.86391608 24.01871215 50.83496094 26.23168945 C50.79307211 29.62054442 50.79389639 33.00741393 50.80078125 36.39648438 C50.79028976 38.5481909 50.77735188 40.69988719 50.76171875 42.8515625 C50.76141663 44.37197899 50.76141663 44.37197899 50.7611084 45.92311096 C50.74519653 46.86766647 50.72928467 47.81222198 50.71289062 48.78540039 C50.70447144 49.61415176 50.69605225 50.44290314 50.68737793 51.29676819 C50.19700775 54.11861634 49.28498879 55.52650323 47.29296875 57.56640625 C46.30296875 57.56640625 45.31296875 57.56640625 44.29296875 57.56640625 C44.29296875 58.22640625 44.29296875 58.88640625 44.29296875 59.56640625 C36.48256726 59.64274518 28.67226274 59.69512741 20.86157227 59.73120117 C18.20677099 59.74454595 15.55246022 59.76668636 12.89770508 59.79272461 C9.07236623 59.82929298 5.24735733 59.84617553 1.421875 59.859375 C0.24339493 59.87485886 -0.93508514 59.89034271 -2.14927673 59.90629578 C-11.41456572 59.90816948 -19.40007534 58.56185725 -26.70703125 52.56640625 C-26.70703125 51.57640625 -26.70703125 50.58640625 -26.70703125 49.56640625 C-27.59648437 49.23962891 -27.59648437 49.23962891 -28.50390625 48.90625 C-33.11916032 46.09945541 -34.91475306 40.46181981 -36.70703125 35.56640625 C-37.84959301 28.72931666 -36.85697688 21.77960176 -33.70703125 15.56640625 C-33.04703125 15.23640625 -32.38703125 14.90640625 -31.70703125 14.56640625 C-31.45953125 13.82390625 -31.21203125 13.08140625 -30.95703125 12.31640625 C-28.18537189 6.21875565 -22.61672638 3.7163481 -16.65786743 1.40896606 C-11.17187859 -0.15746238 -5.66862773 -0.0229843 0 0 Z " fill="#F6F9F6" transform="translate(344.70703125,239.43359375)"/>
<path d="M0 0 C0.99 0.66 1.98 1.32 3 2 C2.54343483 6.56565166 1.19471557 9.83665142 -0.90234375 13.8203125 C-2.43203749 16.85792499 -3.63044702 19.99670183 -4.86328125 23.1640625 C-6.19083838 26.47611224 -7.6274896 29.73313682 -9.0625 33 C-11.22373737 37.9741041 -12.9795633 42.84119887 -14.26171875 48.109375 C-15 50 -15 50 -18 52 C-19.09576244 54.36740338 -19.09576244 54.36740338 -19.9375 57.125 C-21.35719406 61.27612064 -22.96160205 65.08343568 -24.99609375 68.9609375 C-26.15946021 71.32388416 -27.11009839 73.73225934 -28.0625 76.1875 C-28.40023437 77.02410156 -28.73796875 77.86070312 -29.0859375 78.72265625 C-29.8056733 80.51584417 -30.50113485 82.31877592 -31.1875 84.125 C-33 86 -33 86 -35.1875 86.29296875 C-37.48235177 86.31089728 -39.71395044 86.17999292 -42 86 C-41.68217218 76.18457268 -39.10178594 67.18766517 -36.4375 57.8125 C-36.0075901 56.27303011 -35.57854711 54.73331785 -35.15039062 53.19335938 C-34.11022322 49.45937313 -33.0584163 45.7288526 -32 42 C-31.34 42 -30.68 42 -30 42 C-29.96261719 41.38253906 -29.92523438 40.76507813 -29.88671875 40.12890625 C-29.4775104 34.85733986 -28.58504711 30.37462428 -26.74609375 25.4296875 C-25.86161891 22.54935584 -25.50839286 19.73681297 -25.125 16.75 C-24.53170644 13.00038472 -24.18217181 11.25393647 -21.9375 8.125 C-20.968125 7.42375 -19.99875 6.7225 -19 6 C-18.34773438 5.46503906 -17.69546875 4.93007812 -17.0234375 4.37890625 C-11.55501591 0.19546712 -6.86476401 -1.28869216 0 0 Z " fill="#F5F8F5" transform="translate(249,90)"/>
<path d="M0 0 C2.01676329 2.32233349 2.53901115 3.44346242 3.0625 6.375 C3.7225 6.705 4.3825 7.035 5.0625 7.375 C5.0625 9.355 5.0625 11.335 5.0625 13.375 C-16.7175 13.375 -38.4975 13.375 -60.9375 13.375 C-60.9375 5.36658885 -58.42921286 -1.13328714 -52.67578125 -6.88671875 C-34.86437428 -20.92976193 -15.49791956 -13.84920472 0 0 Z " fill="#F8FAF7" transform="translate(335.9375,163.625)"/>
<path d="M0 0 C0.43626669 6.83484477 -1.40691926 12.25157472 -4.0625 18.5 C-5.20770516 21.55388043 -5.81686653 24.6190356 -6.4375 27.81640625 C-7 30 -7 30 -7.9921875 31.91796875 C-9.24202674 34.50000097 -9.65416558 36.92499348 -10.125 39.75 C-10.29257813 40.73484375 -10.46015625 41.7196875 -10.6328125 42.734375 C-10.75398438 43.48203125 -10.87515625 44.2296875 -11 45 C-11.66 45 -12.32 45 -13 45 C-13.103125 45.9075 -13.20625 46.815 -13.3125 47.75 C-13.79459262 51.20150367 -14.61658978 54.5051132 -15.5 57.875 C-16.64695289 62.30212733 -17.35317566 66.53899195 -17.75 71.0859375 C-18.07749696 73.59333613 -18.90271474 75.73227713 -20 78 C-23.3 78 -26.6 78 -30 78 C-30 74.37 -30 70.74 -30 67 C-29.34 67 -28.68 67 -28 67 C-28.02682861 66.28634277 -28.05365723 65.57268555 -28.08129883 64.83740234 C-28.27068861 55.47321102 -27.27944107 46.43480756 -26.02856445 37.16845703 C-25.68548904 34.61000348 -25.36257415 32.04951811 -25.04101562 29.48828125 C-24.82411754 27.83838335 -24.60605983 26.1886374 -24.38671875 24.5390625 C-24.29283371 23.78476959 -24.19894867 23.03047668 -24.10221863 22.25332642 C-23.13625856 15.30630332 -21.07738689 9.07738689 -16 4 C-10.66907966 0.36690062 -6.37645745 -0.45546125 0 0 Z " fill="#F9FBF8" transform="translate(211,100)"/>
<path d="M0 0 C0 1.65 0 3.3 0 5 C-0.66 5 -1.32 5 -2 5 C-2 6.98 -2 8.96 -2 11 C-5 12 -5 12 -6.875 11.25 C-7.57625 11.1675 -8.2775 11.085 -9 11 C-12.03169839 13.53816609 -13.74169637 15.22508911 -15 19 C-16.8394771 20.0900605 -18.67967289 21.17892608 -20.5234375 22.26171875 C-25.59463379 25.82115463 -29.73980635 30.52836291 -34 35 C-38.85648196 33.07718474 -41.37575453 29.16801959 -44.5859375 25.21484375 C-47.50505565 22.5366237 -49.05728044 22.00509395 -53 22 C-57.93552719 24.16251117 -60.69824797 27.95547969 -64.03515625 32.0390625 C-66.08773714 34.08756271 -67.17081138 34.63453688 -70 35 C-70 35.66 -70 36.32 -70 37 C-70.66 37 -71.32 37 -72 37 C-72 37.66 -72 38.32 -72 39 C-73.65808345 40.47516321 -75.37846047 41.880713 -77.125 43.25 C-80.44256781 45.89295299 -83.62882736 48.4971413 -86.5625 51.5625 C-87.7690625 52.7690625 -87.7690625 52.7690625 -89 54 C-89.66 54 -90.32 54 -91 54 C-91 52.35 -91 50.7 -91 49 C-90.34 49 -89.68 49 -89 49 C-88.731875 48.360625 -88.46375 47.72125 -88.1875 47.0625 C-87 45 -87 45 -84 44 C-84 43.34 -84 42.68 -84 42 C-82.42578125 40.44921875 -82.42578125 40.44921875 -80.3125 38.6875 C-77.80197706 36.56355316 -75.39176579 34.44498656 -73.125 32.0625 C-71 30 -71 30 -69 30 C-69 29.34 -69 28.68 -69 28 C-67.5390625 26.4921875 -67.5390625 26.4921875 -65.625 24.875 C-64.99851563 24.33617187 -64.37203125 23.79734375 -63.7265625 23.2421875 C-62 22 -62 22 -60 22 C-60 21.34 -60 20.68 -60 20 C-59.34 20 -58.68 20 -58 20 C-57.7525 19.401875 -57.505 18.80375 -57.25 18.1875 C-55.79135125 15.63486469 -54.56373318 14.43267442 -52 13 C-50.0625 12.9375 -50.0625 12.9375 -48 14 C-46.2856382 15.95927063 -44.61594832 17.95880212 -43 20 C-42.34 20.33 -41.68 20.66 -41 21 C-40.505 22.485 -40.505 22.485 -40 24 C-38.25 25.83333333 -38.25 25.83333333 -36 27 C-32.17374161 26.88042943 -30.54505723 24.62989247 -28 22 C-27.34 22 -26.68 22 -26 22 C-26 21.34 -26 20.68 -26 20 C-25.34 20 -24.68 20 -24 20 C-24 19.34 -24 18.68 -24 18 C-22.390625 16.37890625 -22.390625 16.37890625 -20.25 14.5625 C-19.20585937 13.66724609 -19.20585937 13.66724609 -18.140625 12.75390625 C-16 11 -16 11 -13.796875 9.46484375 C-11.71368111 8.03353612 -11.71368111 8.03353612 -11 5 C-11.66 5 -12.32 5 -13 5 C-13 4.01 -13 3.02 -13 2 C-11.39658445 1.66307215 -9.79223445 1.33058907 -8.1875 1 C-7.29417969 0.814375 -6.40085937 0.62875 -5.48046875 0.4375 C-3 0 -3 0 0 0 Z " fill="#61B864" transform="translate(275,241)"/>
<path d="M0 0 C3.33600367 2.05838525 4.8262176 3.7393264 7 7 C7.1953125 9.26171875 7.1953125 9.26171875 7.125 11.6875 C7.10695313 12.49574219 7.08890625 13.30398438 7.0703125 14.13671875 C7.04710937 14.75160156 7.02390625 15.36648438 7 16 C6.34 16 5.68 16 5 16 C4.67 16.99 4.34 17.98 4 19 C3.34 19 2.68 19 2 19 C2 19.66 2 20.32 2 21 C-7.85507246 21.38647343 -7.85507246 21.38647343 -12 19 C-14.98067984 14.52898023 -14.7187464 10.23767324 -14 5 C-10.59313954 -0.60483496 -6.09868975 -1.21752427 0 0 Z " fill="#396B3B" transform="translate(350,259)"/>
<path d="M0 0 C2.7148545 1.40121522 3.56970132 3.33279257 4.9375 6 C3.9475 5.67 2.9575 5.34 1.9375 5 C1.6075 6.32 1.2775 7.64 0.9375 9 C-0.0525 9 -1.0425 9 -2.0625 9 C-7.56190327 9.74738341 -10.5359407 14.08079286 -14.0625 18 C-16.17578125 20.26171875 -16.17578125 20.26171875 -18.0625 22 C-18.7225 22 -19.3825 22 -20.0625 22 C-20.0625 22.66 -20.0625 23.32 -20.0625 24 C-20.7225 24 -21.3825 24 -22.0625 24 C-22.0625 24.66 -22.0625 25.32 -22.0625 26 C-23.72058345 27.47516321 -25.44096047 28.880713 -27.1875 30.25 C-30.50506781 32.89295299 -33.69132736 35.4971413 -36.625 38.5625 C-37.8315625 39.7690625 -37.8315625 39.7690625 -39.0625 41 C-39.7225 41 -40.3825 41 -41.0625 41 C-41.0625 39.35 -41.0625 37.7 -41.0625 36 C-40.4025 36 -39.7425 36 -39.0625 36 C-38.794375 35.360625 -38.52625 34.72125 -38.25 34.0625 C-37.0625 32 -37.0625 32 -34.0625 31 C-34.0625 30.34 -34.0625 29.68 -34.0625 29 C-32.48828125 27.44921875 -32.48828125 27.44921875 -30.375 25.6875 C-27.86447706 23.56355316 -25.45426579 21.44498656 -23.1875 19.0625 C-21.0625 17 -21.0625 17 -19.0625 17 C-19.0625 16.34 -19.0625 15.68 -19.0625 15 C-17.6015625 13.4921875 -17.6015625 13.4921875 -15.6875 11.875 C-14.74777344 11.06675781 -14.74777344 11.06675781 -13.7890625 10.2421875 C-12.0625 9 -12.0625 9 -10.0625 9 C-10.0625 8.34 -10.0625 7.68 -10.0625 7 C-9.4025 7 -8.7425 7 -8.0625 7 C-7.815 6.401875 -7.5675 5.80375 -7.3125 5.1875 C-5.53676162 2.07995783 -3.73843542 0 0 0 Z " fill="#5EB761" transform="translate(225.0625,254)"/>
<path d="M0 0 C0.99 0.495 0.99 0.495 2 1 C1.01 1.33 0.02 1.66 -1 2 C-1.33 2.99 -1.66 3.98 -2 5 C-30.59808239 5.02334505 -59.19616335 5.04098709 -87.79425335 5.05181217 C-101.07239284 5.0569717 -114.35052642 5.06400791 -127.62866211 5.07543945 C-139.19987724 5.08539672 -150.77108809 5.09185592 -162.34230739 5.09408849 C-168.47095921 5.09539382 -174.59959879 5.09846849 -180.72824669 5.10573006 C-186.49421704 5.11250669 -192.26017007 5.11461359 -198.02614403 5.11310768 C-200.14455764 5.11338327 -202.26297182 5.11537866 -204.38138199 5.11920547 C-207.26983496 5.12416832 -210.15822219 5.12298864 -213.04667664 5.12025452 C-213.88812105 5.12316736 -214.72956547 5.1260802 -215.5965082 5.12908131 C-219.53360321 5.11898351 -223.15584825 4.97565797 -227 4 C-227 3.67 -227 3.34 -227 3 C-225.86048039 3.00276538 -224.72096079 3.00553076 -223.54691029 3.00837994 C-195.83910568 3.0749342 -168.13131141 3.12425618 -140.42344379 3.15543652 C-137.7576376 3.15851605 -135.09183147 3.16162008 -132.42602539 3.16479492 C-131.76342046 3.16558185 -131.10081554 3.16636878 -130.41813167 3.16717956 C-120.35400819 3.17942466 -110.28992717 3.2004916 -100.22583008 3.22631836 C-88.54913921 3.25618973 -76.87248654 3.27556765 -65.19575852 3.28226548 C-59.01117264 3.28618156 -52.82669606 3.29540598 -46.64214516 3.31719017 C-40.82360892 3.3375195 -35.00522724 3.34384096 -29.18665886 3.33932304 C-27.04888698 3.34014983 -24.91111005 3.34613651 -22.77336884 3.35761642 C-19.85847183 3.37250476 -16.94416119 3.36896683 -14.0292511 3.36076355 C-12.75541163 3.37387134 -12.75541163 3.37387134 -11.45583802 3.38724393 C-6.68486438 3.35086087 -4.03604002 2.77133118 0 0 Z " fill="#B5C1B4" transform="translate(371,351)"/>
<path d="M0 0 C1.06154297 -0.00386719 2.12308594 -0.00773438 3.21679688 -0.01171875 C4.22419922 -0.01042969 5.23160156 -0.00914062 6.26953125 -0.0078125 C7.18968018 -0.00668457 8.1098291 -0.00555664 9.05786133 -0.00439453 C11.1875 0.125 11.1875 0.125 12.1875 1.125 C12.27401611 2.54070123 12.29454904 3.960595 12.28515625 5.37890625 C12.28193359 6.23291016 12.27871094 7.08691406 12.27539062 7.96679688 C12.26282227 9.31354492 12.26282227 9.31354492 12.25 10.6875 C12.24548828 11.58919922 12.24097656 12.49089844 12.23632812 13.41992188 C12.22450244 15.65497589 12.20656638 17.88999602 12.1875 20.125 C6.5775 20.125 0.9675 20.125 -4.8125 20.125 C-4.8125 19.795 -4.8125 19.465 -4.8125 19.125 C0.1375 19.125 5.0875 19.125 10.1875 19.125 C10.1875 13.515 10.1875 7.905 10.1875 2.125 C6.12441386 2.23894633 2.06242123 2.36570508 -2 2.5 C-3.72573242 2.54640625 -3.72573242 2.54640625 -5.48632812 2.59375 C-6.59814453 2.63242188 -7.70996094 2.67109375 -8.85546875 2.7109375 C-9.87664795 2.7423584 -10.89782715 2.7737793 -11.94995117 2.80615234 C-14.90097175 3.13485451 -17.09201286 3.98034708 -19.8125 5.125 C-20.8025 5.125 -21.7925 5.125 -22.8125 5.125 C-23.19728516 6.02025391 -23.19728516 6.02025391 -23.58984375 6.93359375 C-24.92350184 9.32395218 -26.23301394 10.51057981 -28.375 12.1875 C-31.00687653 14.25032214 -31.71682539 14.83797618 -32.8125 18.125 C-33.4725 18.125 -34.1325 18.125 -34.8125 18.125 C-32.46146792 10.36659415 -27.04664375 5.84005691 -20.15625 2.0703125 C-13.72469608 -0.52374758 -6.81823988 -0.02529959 0 0 Z " fill="#C8DFC8" transform="translate(162.8125,153.875)"/>
<path d="M0 0 C6.42226761 0.64222676 6.42226761 0.64222676 9.43994141 2.51098633 C14.82463707 4.76316428 20.05414457 4.48077543 25.8359375 4.51171875 C27.07042633 4.52966995 28.30491516 4.54762115 29.57681274 4.56611633 C33.50950737 4.62018431 37.44208083 4.65410502 41.375 4.6875 C44.04561882 4.71904465 46.71615139 4.75516579 49.38671875 4.79101562 C55.9244963 4.87837561 62.46172413 4.93847826 69 5 C69 14.57 69 24.14 69 34 C68.34 34 67.68 34 67 34 C66.67 35.65 66.34 37.3 66 39 C65.67 38.34 65.34 37.68 65 37 C65.66 35.35 66.32 33.7 67 32 C67.33 23.42 67.66 14.84 68 6 C48.53 6 29.06 6 9 6 C9 5.34 9 4.68 9 4 C7.35 4 5.7 4 4 4 C4 3.34 4 2.68 4 2 C2.68 1.67 1.36 1.34 0 1 C0 0.67 0 0.34 0 0 Z " fill="#AEC1AE" transform="translate(317,302)"/>
<path d="M0 0 C0 1.65 0 3.3 0 5 C-0.66 5 -1.32 5 -2 5 C-2 6.98 -2 8.96 -2 11 C-5.28976808 12.09658936 -6.71303767 11.79953138 -10 11 C-10 10.34 -10 9.68 -10 9 C-10.66 8.67 -11.32 8.34 -12 8 C-11.67 7.01 -11.34 6.02 -11 5 C-11.66 5 -12.32 5 -13 5 C-13 4.01 -13 3.02 -13 2 C-11.39658445 1.66307215 -9.79223445 1.33058907 -8.1875 1 C-7.29417969 0.814375 -6.40085937 0.62875 -5.48046875 0.4375 C-3 0 -3 0 0 0 Z " fill="#57B45A" transform="translate(275,241)"/>
<path d="M0 0 C0.33 0 0.66 0 1 0 C1.02690844 2.62506802 1.04679404 5.24986173 1.0625 7.875 C1.07087891 8.62136719 1.07925781 9.36773437 1.08789062 10.13671875 C1.11328125 15.7734375 1.11328125 15.7734375 0 18 C-0.19450128 19.35166756 -0.34297108 20.7101717 -0.46484375 22.0703125 C-0.54283203 22.885 -0.62082031 23.6996875 -0.70117188 24.5390625 C-0.85656748 26.23942433 -1.01026273 27.93994257 -1.16210938 29.640625 C-1.67286515 34.93919711 -2.58328574 39.86663368 -4 45 C-1.36 45 1.28 45 4 45 C4.66 42.69 5.32 40.38 6 38 C7.0326802 40.78823655 7.04509293 41.8677274 6.0625 44.75 C5.711875 45.4925 5.36125 46.235 5 47 C1.7 47 -1.6 47 -5 47 C-5 43.37 -5 39.74 -5 36 C-4.34 36 -3.68 36 -3 36 C-3.03480469 35.32839844 -3.06960937 34.65679687 -3.10546875 33.96484375 C-3.41596463 22.50606733 -1.63568268 11.31492195 0 0 Z " fill="#B4CEB5" transform="translate(186,131)"/>
<path d="M0 0 C1.32 0 2.64 0 4 0 C3.42437172 3.33864404 2.40936384 4.69102632 0 7 C-0.33 7.99 -0.66 8.98 -1 10 C-2.77734375 11.3515625 -2.77734375 11.3515625 -4.9375 12.625 C-5.64777344 13.05039062 -6.35804688 13.47578125 -7.08984375 13.9140625 C-8.37407056 14.64415463 -9.67870578 15.33935289 -11 16 C-11 15.34 -11 14.68 -11 14 C-12.65 15.32 -14.3 16.64 -16 18 C-16.66 17.67 -17.32 17.34 -18 17 C-16.71034824 15.62437146 -15.37310707 14.29233607 -14 13 C-13.34 13 -12.68 13 -12 13 C-12 12.34 -12 11.68 -12 11 C-11.34 11 -10.68 11 -10 11 C-10 10.34 -10 9.68 -10 9 C-8.3203125 7.34375 -8.3203125 7.34375 -6.125 5.5 C-4.00964496 3.71066742 -1.95980876 1.95980876 0 0 Z " fill="#6EBE71" transform="translate(261,250)"/>
<path d="M0 0 C2.7148545 1.40121522 3.56970132 3.33279257 4.9375 6 C3.9475 5.67 2.9575 5.34 1.9375 5 C1.6075 6.32 1.2775 7.64 0.9375 9 C-0.09375 9.12375 -1.125 9.2475 -2.1875 9.375 C-7.20569966 10.18438704 -11.5892649 11.59133495 -16.0625 14 C-14.78187515 12.2925002 -13.44482443 10.62626404 -12.0625 9 C-11.4025 9 -10.7425 9 -10.0625 9 C-10.0625 8.34 -10.0625 7.68 -10.0625 7 C-9.4025 7 -8.7425 7 -8.0625 7 C-7.815 6.401875 -7.5675 5.80375 -7.3125 5.1875 C-5.53676162 2.07995783 -3.73843542 0 0 0 Z " fill="#69BC6C" transform="translate(225.0625,254)"/>
<path d="M0 0 C0.66 0.33 1.32 0.66 2 1 C1.28972656 1.69867188 0.57945312 2.39734375 -0.15234375 3.1171875 C-1.07144531 4.02726562 -1.99054688 4.93734375 -2.9375 5.875 C-3.85402344 6.77992188 -4.77054688 7.68484375 -5.71484375 8.6171875 C-8.01187627 10.77682255 -8.01187627 10.77682255 -9 13 C-8.34 13.33 -7.68 13.66 -7 14 C-8.78628831 15.67277835 -10.5785075 17.33824443 -12.375 19 C-12.88289062 19.47695313 -13.39078125 19.95390625 -13.9140625 20.4453125 C-17.7734375 24 -17.7734375 24 -20 24 C-20 22.35 -20 20.7 -20 19 C-19.34 19 -18.68 19 -18 19 C-17.731875 18.360625 -17.46375 17.72125 -17.1875 17.0625 C-16 15 -16 15 -13 14 C-13 13.34 -13 12.68 -13 12 C-11.42578125 10.44921875 -11.42578125 10.44921875 -9.3125 8.6875 C-6.04699036 5.91500692 -2.98084015 3.07399141 0 0 Z " fill="#70BF73" transform="translate(204,271)"/>
<path d="M0 0 C-0.309375 0.763125 -0.61875 1.52625 -0.9375 2.3125 C-1.67893593 4.18789677 -2.36228217 6.08684652 -3 8 C-3.66 8 -4.32 8 -5 8 C-5.268125 8.721875 -5.53625 9.44375 -5.8125 10.1875 C-6.99901362 12.99766383 -8.27485639 15.48416557 -10 18 C-10.66 18 -11.32 18 -12 18 C-12.12375 18.639375 -12.2475 19.27875 -12.375 19.9375 C-12.58125 20.618125 -12.7875 21.29875 -13 22 C-13.66 22.33 -14.32 22.66 -15 23 C-15.3125 20.3125 -15.3125 20.3125 -15 17 C-13.33333333 15.33333333 -11.66666667 13.66666667 -10 12 C-8.83964625 9.43991883 -7.89394765 6.86842072 -6.9921875 4.20703125 C-5.42549248 0.72206005 -3.73583088 0 0 0 Z " fill="#428C42" transform="translate(472,377)"/>
<path d="M0 0 C0.97591583 3.38317487 0.85856655 5.5657338 0 9 C-0.66 9 -1.32 9 -2 9 C-2.144375 9.5775 -2.28875 10.155 -2.4375 10.75 C-2.623125 11.4925 -2.80875 12.235 -3 13 C-3.144375 13.721875 -3.28875 14.44375 -3.4375 15.1875 C-3.623125 15.785625 -3.80875 16.38375 -4 17 C-6.64458379 18.32229189 -8.67761301 18.09677194 -11.625 18.0625 C-12.62789062 18.05347656 -13.63078125 18.04445312 -14.6640625 18.03515625 C-15.43492187 18.02355469 -16.20578125 18.01195312 -17 18 C-16.67 15.03 -16.34 12.06 -16 9 C-15 13 -15 13 -16 16 C-13.03 16 -10.06 16 -7 16 C-6.72414062 15.29488281 -6.44828125 14.58976563 -6.1640625 13.86328125 C-4.97316845 10.9340016 -3.69124864 8.06246414 -2.375 5.1875 C-1.92898437 4.21167969 -1.48296875 3.23585937 -1.0234375 2.23046875 C-0.51683594 1.12638672 -0.51683594 1.12638672 0 0 Z " fill="#A7BCA7" transform="translate(223,160)"/>
<path d="M0 0 C1.65 0.33 3.3 0.66 5 1 C5 1.66 5 2.32 5 3 C4.34 3 3.68 3 3 3 C3 4.98 3 6.96 3 9 C2.34 9 1.68 9 1 9 C0.94392578 10.15628906 0.94392578 10.15628906 0.88671875 11.3359375 C0.78810547 12.84027344 0.78810547 12.84027344 0.6875 14.375 C0.62949219 15.37273437 0.57148438 16.37046875 0.51171875 17.3984375 C0.25841797 18.68621094 0.25841797 18.68621094 0 20 C-0.99 20.66 -1.98 21.32 -3 22 C-3.20545925 16.76078923 -3.11829672 12.85962189 -1 8 C-0.54438927 5.3364296 -0.27367548 2.69114222 0 0 Z " fill="#3A7B3B" transform="translate(493,313)"/>
<path d="M0 0 C0.66 0.33 1.32 0.66 2 1 C0.8803014 2.00593243 -0.2459412 3.0045849 -1.375 4 C-2.31472656 4.8353125 -2.31472656 4.8353125 -3.2734375 5.6875 C-5 7 -5 7 -7 7 C-7 7.66 -7 8.32 -7 9 C-7.66 9 -8.32 9 -9 9 C-9.33 9.99 -9.66 10.98 -10 12 C-10.66 12 -11.32 12 -12 12 C-12 12.66 -12 13.32 -12 14 C-12.66 14 -13.32 14 -14 14 C-14 14.66 -14 15.32 -14 16 C-14.99 16 -15.98 16 -17 16 C-16.46115292 12.1775535 -14.94772136 10.76475982 -12 8.375 C-9.04427685 6.05444701 -9.04427685 6.05444701 -7 3 C-5.68 3 -4.36 3 -3 3 C-3 2.34 -3 1.68 -3 1 C-2.01 0.67 -1.02 0.34 0 0 Z " fill="#468446" transform="translate(433,427)"/>
<path d="M0 0 C4.875 1.875 4.875 1.875 6 3 C6.20356195 9.4122015 5.74428438 15.6337104 5 22 C4.67 22 4.34 22 4 22 C3.67 19.36 3.34 16.72 3 14 C2.67 14 2.34 14 2 14 C2 10.04 2 6.08 2 2 C1.34 2 0.68 2 0 2 C0 1.34 0 0.68 0 0 Z " fill="#316C33" transform="translate(176,155)"/>
<path d="M0 0 C0.99 0.33 1.98 0.66 3 1 C2.01 1.495 2.01 1.495 1 2 C0.87625 2.61875 0.7525 3.2375 0.625 3.875 C-0.21377145 6.72682293 -1.47724337 7.51602551 -4 9 C-4.99 9 -5.98 9 -7 9 C-7 9.66 -7 10.32 -7 11 C-8.98 11.99 -8.98 11.99 -11 13 C-10.8125 10.1875 -10.8125 10.1875 -10 7 C-7.75 5.375 -7.75 5.375 -5 4 C-4.13375 3.2575 -3.2675 2.515 -2.375 1.75 C-1.59125 1.1725 -0.8075 0.595 0 0 Z " fill="#367436" transform="translate(411,444)"/>
<path d="M0 0 C5.94 0 11.88 0 18 0 C18 0.99 18 1.98 18 3 C12.06 3 6.12 3 0 3 C0 2.01 0 1.02 0 0 Z " fill="#337235" transform="translate(269,498)"/>
<path d="M0 0 C0.37851209 5.93002267 -0.89424625 10.47239641 -3 16 C-5.66666667 14.66666667 -8.33333333 13.33333333 -11 12 C-7.94736336 11.01879536 -6.05263664 11.01879536 -3 12 C-3 10.02 -3 8.04 -3 6 C-2.34 6 -1.68 6 -1 6 C-1 4.35 -1 2.7 -1 1 C-2.2684375 1.495 -2.2684375 1.495 -3.5625 2 C-7.20989216 3.06105954 -10.22274664 3.15109013 -14 3 C-14.33 3.99 -14.66 4.98 -15 6 C-15 4.68 -15 3.36 -15 2 C-9.92523206 0.73694665 -5.27203646 -0.27036084 0 0 Z " fill="#BADFBB" transform="translate(276,240)"/>
<path d="M0 0 C4.26356215 0.72400112 7.57928233 2.44006153 11.3125 4.5625 C8.08767762 6.17491119 5.10209682 4.62810859 1.72265625 3.7421875 C-0.72961644 3.29462575 -0.72961644 3.29462575 -2.44921875 4.875 C-3.78127131 6.54872662 -3.78127131 6.54872662 -4.5625 8.6875 C-5.6875 10.5625 -5.6875 10.5625 -8.3125 11.3125 C-9.09625 11.395 -9.88 11.4775 -10.6875 11.5625 C-9.5428125 10.2321875 -9.5428125 10.2321875 -8.375 8.875 C-6.61829017 6.80914849 -5.48106648 5.14963297 -4.25 2.6875 C-2.6875 0.5625 -2.6875 0.5625 0 0 Z " fill="#6F9370" transform="translate(312.6875,113.4375)"/>
<path d="M0 0 C0.99 0.33 1.98 0.66 3 1 C3 3.64 3 6.28 3 9 C2.34 9 1.68 9 1 9 C1 12.63 1 16.26 1 20 C0.34 20 -0.32 20 -1 20 C-1.11381955 13.23405981 -0.88021369 6.71162938 0 0 Z " fill="#377839" transform="translate(500,278)"/>
<path d="M0 0 C2.64 0.66 5.28 1.32 8 2 C7.98952637 2.57443848 7.97905273 3.14887695 7.96826172 3.74072266 C7.92642901 6.36876977 7.900588 8.99674654 7.875 11.625 C7.85824219 12.52863281 7.84148437 13.43226563 7.82421875 14.36328125 C7.78754153 19.38805981 8.21333893 23.24057515 10 28 C9.67 28.66 9.34 29.32 9 30 C5.41785552 24.41523931 5.6435944 19.51742747 5.8125 13.125 C5.82603516 12.15046875 5.83957031 11.1759375 5.85351562 10.171875 C5.88868038 7.78067137 5.9378933 5.39063025 6 3 C4.02 2.34 2.04 1.68 0 1 C0 0.67 0 0.34 0 0 Z " fill="#B0C3B1" transform="translate(330,121)"/>
<path d="M0 0 C0.66 0.33 1.32 0.66 2 1 C1.01 1.33 0.02 1.66 -1 2 C-1.33 2.99 -1.66 3.98 -2 5 C-12.56 5 -23.12 5 -34 5 C-34 4.67 -34 4.34 -34 4 C-33.14768799 3.98541748 -32.29537598 3.97083496 -31.41723633 3.95581055 C-28.23928825 3.89456715 -25.06197454 3.82037971 -21.88452148 3.73754883 C-20.51224042 3.70440194 -19.13982638 3.67633829 -17.76733398 3.65356445 C-15.78862234 3.61983234 -13.81028624 3.5659851 -11.83203125 3.51171875 C-10.64327393 3.48553467 -9.4545166 3.45935059 -8.22973633 3.43237305 C-4.75941827 2.96779271 -2.90881618 1.86005273 0 0 Z " fill="#B4C0B4" transform="translate(371,351)"/>
<path d="M0 0 C0.59425781 0.20882812 1.18851562 0.41765625 1.80078125 0.6328125 C0.34860449 2.13877358 -1.11114736 3.63743354 -2.57421875 5.1328125 C-3.38632812 5.968125 -4.1984375 6.8034375 -5.03515625 7.6640625 C-7.19921875 9.6328125 -7.19921875 9.6328125 -9.19921875 9.6328125 C-8.99000232 5.97152498 -8.05063524 4.15332431 -5.38671875 1.7578125 C-2.19921875 -0.3671875 -2.19921875 -0.3671875 0 0 Z " fill="#ECF0EC" transform="translate(323.19921875,244.3671875)"/>
<path d="M0 0 C1.03125 0.165 2.0625 0.33 3.125 0.5 C9.38869178 1.3027475 15.69805789 1.07965938 22 1 C22 1.66 22 2.32 22 3 C21.11477661 3.03758423 21.11477661 3.03758423 20.21166992 3.07592773 C17.53673186 3.19200052 14.8621362 3.31467572 12.1875 3.4375 C10.7943457 3.49647461 10.7943457 3.49647461 9.37304688 3.55664062 C8.0340332 3.61948242 8.0340332 3.61948242 6.66796875 3.68359375 C5.43469849 3.73858032 5.43469849 3.73858032 4.17651367 3.79467773 C1.82094822 3.93427772 1.82094822 3.93427772 -1 5 C-0.67 3.35 -0.34 1.7 0 0 Z " fill="#6E926F" transform="translate(271,129)"/>
<path d="M0 0 C1.12059732 3.31666723 0.88108499 5.17352588 -0.3125 8.4375 C-0.59609375 9.23027344 -0.8796875 10.02304688 -1.171875 10.83984375 C-1.77194424 12.40511871 -2.40680912 13.95719792 -3.0625 15.5 C-4.46291282 19.23443418 -5.20107673 23.09887468 -6 27 C-7.43737319 23.12198641 -6.58506211 20.08107945 -5.6875 16.125 C-5.42324219 14.93132812 -5.15898437 13.73765625 -4.88671875 12.5078125 C-4.06870493 9.27179306 -3.10260806 6.14893307 -2 3 C-1.34 3 -0.68 3 0 3 C0 2.01 0 1.02 0 0 Z " fill="#97AF97" transform="translate(210,103)"/>
<path d="M0 0 C-0.33 1.32 -0.66 2.64 -1 4 C-1.66 4 -2.32 4 -3 4 C-3 4.66 -3 5.32 -3 6 C-7.35294118 10 -7.35294118 10 -11 10 C-9.15919405 5.21390453 -5.3291986 0 0 0 Z " fill="#52B255" transform="translate(206,274)"/>
<path d="M0 0 C0.66 0.33 1.32 0.66 2 1 C0.71937515 2.7074998 -0.61767557 4.37373596 -2 6 C-2.66 6 -3.32 6 -4 6 C-4.28875 6.78375 -4.5775 7.5675 -4.875 8.375 C-6 11 -6 11 -8 13 C-8.99 13 -9.98 13 -11 13 C-9.63055898 10.05043472 -8.12169591 7.47531189 -6 5 C-5.34 5 -4.68 5 -4 5 C-4 4.34 -4 3.68 -4 3 C-2 1.375 -2 1.375 0 0 Z " fill="#558157" transform="translate(314,237)"/>
<path d="M0 0 C3.3 0 6.6 0 10 0 C10 0.66 10 1.32 10 2 C11.423125 1.938125 11.423125 1.938125 12.875 1.875 C16 2 16 2 18 4 C11.07 3.67 4.14 3.34 -3 3 C-2.01 2.67 -1.02 2.34 0 2 C0 1.34 0 0.68 0 0 Z " fill="#BEDFBF" transform="translate(278,80)"/>
<path d="M0 0 C-0.37392721 2.71097227 -0.81357627 3.82000467 -2.8125 5.75 C-5 7 -5 7 -9 7 C-6.79922603 2.09058114 -5.62803596 0 0 0 Z " fill="#63B966" transform="translate(265,250)"/>
<path d="M0 0 C1.32 0.33 2.64 0.66 4 1 C2.71451591 2.33929505 1.42141845 3.67128643 0.125 5 C-0.59429687 5.7425 -1.31359375 6.485 -2.0546875 7.25 C-4 9 -4 9 -6 9 C-6.33 9.99 -6.66 10.98 -7 12 C-6.67566492 6.64847115 -3.50295176 3.71719957 0 0 Z " fill="#C0E1C1" transform="translate(271,83)"/>
<path d="M0 0 C-0.33 0.99 -0.66 1.98 -1 3 C-2.6396875 3.2165625 -2.6396875 3.2165625 -4.3125 3.4375 C-7.93122987 3.88288104 -7.93122987 3.88288104 -11 5 C-9.96508351 2.17750049 -9.30084735 1.16625774 -6.625 -0.3125 C-3.89420147 -1.02770914 -2.60810739 -0.9659657 0 0 Z " fill="#429246" transform="translate(318,493)"/>
<path d="M0 0 C0.97591583 3.38317487 0.85856655 5.5657338 0 9 C-0.66 9 -1.32 9 -2 9 C-2.144375 9.5775 -2.28875 10.155 -2.4375 10.75 C-2.95833333 12.83333333 -3.47916667 14.91666667 -4 17 C-4.66 17 -5.32 17 -6 17 C-4.67594074 10.93139507 -2.67149708 5.60236281 0 0 Z " fill="#6E926F" transform="translate(223,160)"/>
<path d="M0 0 C-1.44077046 3.36179774 -3.24750021 5.59156268 -6 8 C-6.66 8 -7.32 8 -8 8 C-8.33 10.31 -8.66 12.62 -9 15 C-10.33566756 11.96439191 -9.91578966 10.73801229 -8.875 7.5 C-6.90229718 3.8176214 -4.58782287 0 0 0 Z " fill="#D2E9D2" transform="translate(234,94)"/>
<path d="M0 0 C2.38736258 4.77472516 0.3663908 12.20679493 -1.0625 17.1875 C-1.371875 18.115625 -1.68125 19.04375 -2 20 C-2.33 20 -2.66 20 -3 20 C-3.24613739 13.47735909 -2.53020433 7.35537418 -1 1 C-0.67 0.67 -0.34 0.34 0 0 Z " fill="#BDDEBE" transform="translate(190,111)"/>
<path d="M0 0 C1.875 0.125 1.875 0.125 4 1 C5.75 3.5625 5.75 3.5625 7 6 C4.53199953 4.84826645 2.95216435 3.95216435 1 2 C0.34 1.67 -0.32 1.34 -1 1 C-0.67 0.67 -0.34 0.34 0 0 Z M1 4 C1.66 4 2.32 4 3 4 C3.33 5.65 3.66 7.3 4 9 C1.69 9 -0.62 9 -3 9 C-1.71937515 7.2925002 -0.38232443 5.62626404 1 4 Z " fill="#90CD92" transform="translate(223,254)"/>
<path d="M0 0 C0.66 0 1.32 0 2 0 C1.63495936 5.66442374 0.9445679 10.00703705 -2 15 C-3.04005702 11.61981469 -3.08004482 8.5219721 -3 5 C-2.01 4.67 -1.02 4.34 0 4 C0 2.68 0 1.36 0 0 Z " fill="#6C916E" transform="translate(351,162)"/>
<path d="M0 0 C1.31538327 4.15771494 0.34433068 6.8879297 -1 11 C-1.66 11 -2.32 11 -3 11 C-2.938125 12.1446875 -2.938125 12.1446875 -2.875 13.3125 C-3 16 -3 16 -5 19 C-5.66 19 -6.32 19 -7 19 C-4.94235079 12.54646385 -2.57616518 6.2638737 0 0 Z " fill="#5B845D" transform="translate(248,101)"/>
<path d="M0 0 C0.66 0.33 1.32 0.66 2 1 C1.38125 1.0825 0.7625 1.165 0.125 1.25 C-2.14390805 1.78597843 -2.14390805 1.78597843 -3 3.8125 C-3.33 4.534375 -3.66 5.25625 -4 6 C-6 8.25 -6 8.25 -8 10 C-8.66 10 -9.32 10 -10 10 C-8.64844718 5.57673622 -6.80109562 3.59587018 -3 1 C-2.01 0.67 -1.02 0.34 0 0 Z " fill="#C5E3C6" transform="translate(201,101)"/>
<path d="M0 0 C0.66 0 1.32 0 2 0 C2.33 0.99 2.66 1.98 3 3 C2.34 3 1.68 3 1 3 C1 3.66 1 4.32 1 5 C0.34 5 -0.32 5 -1 5 C-1.33 5.99 -1.66 6.98 -2 8 C-4.0625 8.6875 -4.0625 8.6875 -6 9 C-2.25 2.25 -2.25 2.25 0 0 Z " fill="#337335" transform="translate(437,419)"/>
<path d="M0 0 C0.66 0.33 1.32 0.66 2 1 C2.1081866 3.58445773 2.18737237 6.16437352 2.25 8.75 C2.28351563 9.47960937 2.31703125 10.20921875 2.3515625 10.9609375 C2.41902625 14.67144375 2.34327652 16.57156961 -0.015625 19.515625 C-0.67046875 20.00546875 -1.3253125 20.4953125 -2 21 C-1.67 20.13375 -1.34 19.2675 -1 18.375 C0.74573789 12.4370324 0.1528417 6.12215931 0 0 Z " fill="#ACC0AD" transform="translate(384,127)"/>
<path d="M0 0 C-0.54226981 3.79588866 -2.20127563 5.47211993 -5 8 C-5.99 7.67 -6.98 7.34 -8 7 C-6.76759083 3.3027725 -4.20634615 0 0 0 Z " fill="#50B154" transform="translate(250,264)"/>
<path d="M0 0 C2.96836609 3.48015335 4.96172053 6.92344106 7 11 C7.66 11.33 8.32 11.66 9 12 C8.67 12.66 8.34 13.32 8 14 C6 12.6875 6 12.6875 4 11 C4 10.01 4 9.02 4 8 C3.01 8 2.02 8 1 8 C0.67 5.36 0.34 2.72 0 0 Z " fill="#88A589" transform="translate(309,277)"/>
<path d="M0 0 C2 3 2 3 2 5 C1.34 5 0.68 5 0 5 C-0.12375 5.639375 -0.2475 6.27875 -0.375 6.9375 C-0.58125 7.618125 -0.7875 8.29875 -1 9 C-1.99 9.495 -1.99 9.495 -3 10 C-3.36923077 4.58461538 -3.36923077 4.58461538 -1.5 1.625 C-1.005 1.08875 -0.51 0.5525 0 0 Z " fill="#408041" transform="translate(460,390)"/>
<path d="M0 0 C0.66 0 1.32 0 2 0 C1.67 3.63 1.34 7.26 1 11 C0.01 11.33 -0.98 11.66 -2 12 C-1.44687265 7.97007218 -0.8441938 3.97977076 0 0 Z " fill="#648B66" transform="translate(198,145)"/>
<path d="M0 0 C1.32827107 2.65654214 0.72245548 3.59432385 -0.1875 6.375 C-1.48474156 10.10456948 -2.84321958 12.49634656 -6 15 C-4.25 8.25 -4.25 8.25 -2 6 C-1.28591666 4.01643517 -0.61382258 2.01684563 0 0 Z " fill="#9FB6A0" transform="translate(257,109)"/>
<path d="M0 0 C4.97306516 0.49730652 8.63799813 1.55302334 13 4 C9.67465243 5.10844919 7.37817425 4.84454356 4 4 C4 3.34 4 2.68 4 2 C2.68 1.67 1.36 1.34 0 1 C0 0.67 0 0.34 0 0 Z " fill="#789979" transform="translate(317,302)"/>
<path d="M0 0 C0.66 0.33 1.32 0.66 2 1 C-0.97 3.97 -3.94 6.94 -7 10 C-7.33 9.01 -7.66 8.02 -8 7 C-5.36 4.69 -2.72 2.38 0 0 Z " fill="#E7ECE6" transform="translate(288,153)"/>
<path d="M0 0 C1.65 0 3.3 0 5 0 C4.67 1.32 4.34 2.64 4 4 C2.35 4.33 0.7 4.66 -1 5 C-0.67 3.35 -0.34 1.7 0 0 Z " fill="#36793A" transform="translate(326,488)"/>
<path d="M0 0 C0.99 0.33 1.98 0.66 3 1 C2.67 1.99 2.34 2.98 2 4 C1.34 4 0.68 4 0 4 C0 4.66 0 5.32 0 6 C-2.97 6 -5.94 6 -9 6 C-9 5.67 -9 5.34 -9 5 C-7.329375 4.87625 -7.329375 4.87625 -5.625 4.75 C-1.94246056 4.42126213 -1.94246056 4.42126213 -0.5625 1.9375 C-0.376875 1.298125 -0.19125 0.65875 0 0 Z " fill="#6B906C" transform="translate(352,274)"/>
<path d="M0 0 C0.86625 0.495 0.86625 0.495 1.75 1 C4.19883862 2.27075898 4.19883862 2.27075898 8 2 C8 2.66 8 3.32 8 4 C7.05125 3.95875 6.1025 3.9175 5.125 3.875 C1.89755144 3.65026182 1.89755144 3.65026182 0 6 C-0.66 4.68 -1.32 3.36 -2 2 C-1.34 2 -0.68 2 0 2 C0 1.34 0 0.68 0 0 Z " fill="#7BC37E" transform="translate(235,266)"/>
<path d="M0 0 C0 0.66 0 1.32 0 2 C-4.455 3.485 -4.455 3.485 -9 5 C-6.64389875 0.2877975 -5.23968794 -1.74656265 0 0 Z " fill="#234D24" transform="translate(375,472)"/>
<path d="M0 0 C2.97 0.495 2.97 0.495 6 1 C5.34 1.66 4.68 2.32 4 3 C4.99 4.32 5.98 5.64 7 7 C6.67 7.66 6.34 8.32 6 9 C4.99406757 7.8803014 3.9954151 6.7540588 3 5.625 C2.443125 4.99851562 1.88625 4.37203125 1.3125 3.7265625 C0 2 0 2 0 0 Z " fill="#428744" transform="translate(138,352)"/>
<path d="M0 0 C-0.33 1.32 -0.66 2.64 -1 4 C-3.64 4.33 -6.28 4.66 -9 5 C-2.87096774 0 -2.87096774 0 0 0 Z " fill="#709472" transform="translate(302,125)"/>
<path d="M0 0 C3 3 3 3 3.07421875 6.35546875 C2.94660156 7.62003906 2.81898438 8.88460937 2.6875 10.1875 C2.56761719 11.45980469 2.44773437 12.73210937 2.32421875 14.04296875 C2.21722656 15.01878906 2.11023438 15.99460938 2 17 C1.67 17 1.34 17 1 17 C0.67 11.39 0.34 5.78 0 0 Z " fill="#48824A" transform="translate(385,124)"/>
<path d="M0 0 C0.66 0.33 1.32 0.66 2 1 C1.01 1.33 0.02 1.66 -1 2 C-1.33 2.99 -1.66 3.98 -2 5 C-4.64 5 -7.28 5 -10 5 C-10 4.67 -10 4.34 -10 4 C-8.906875 3.71125 -7.81375 3.4225 -6.6875 3.125 C-2.95986155 2.18106796 -2.95986155 2.18106796 0 0 Z " fill="#6E936F" transform="translate(371,351)"/>
<path d="M0 0 C0.66 0.33 1.32 0.66 2 1 C-0.44580676 4.66871014 -3.12424268 6.06212134 -7 8 C-5.50902342 4.2047869 -3.24299151 2.38957269 0 0 Z " fill="#9AB39B" transform="translate(321,244)"/>
<path d="M0 0 C0.66 0.33 1.32 0.66 2 1 C-0.65654657 4.73884332 -2.58110387 6.64978174 -7 8 C-6.67 7.01 -6.34 6.02 -6 5 C-5.34 5 -4.68 5 -4 5 C-4 4.34 -4 3.68 -4 3 C-2 1.375 -2 1.375 0 0 Z " fill="#83A183" transform="translate(314,237)"/>
<path d="M0 0 C2.96175123 0.61277612 4.38058783 1.25372522 7 3 C4.36 3.66 1.72 4.32 -1 5 C-0.67 3.35 -0.34 1.7 0 0 Z " fill="#5D865F" transform="translate(271,129)"/>
<path d="M0 0 C0.99 0.33 1.98 0.66 3 1 C1.7260411 3.03833424 0.38938077 5.03852126 -1 7 C-1.66 7 -2.32 7 -3 7 C-2.38722388 4.03824877 -1.74627478 2.61941217 0 0 Z " fill="#4F994F" transform="translate(464,386)"/>
<path d="M0 0 C0.66 0 1.32 0 2 0 C1.67 1.98 1.34 3.96 1 6 C0.01 6.33 -0.98 6.66 -2 7 C-2.125 4.625 -2.125 4.625 -2 2 C-1.34 1.34 -0.68 0.68 0 0 Z " fill="#408640" transform="translate(485,345)"/>
<path d="M0 0 C0.66 0.33 1.32 0.66 2 1 C0.41641358 4.16717283 -0.45263699 5.73268318 -3.6875 7.3125 C-4.450625 7.539375 -5.21375 7.76625 -6 8 C-4.55746343 4.63408134 -2.66735273 2.48952921 0 0 Z " fill="#6AB768" transform="translate(83,76)"/>
<path d="M0 0 C-0.33 0.99 -0.66 1.98 -1 3 C-3.31 3 -5.62 3 -8 3 C-8 2.34 -8 1.68 -8 1 C-5.10765685 0.17361624 -3.11257569 0 0 0 Z " fill="#67B465" transform="translate(241,7)"/>
<path d="M0 0 C0.66 0 1.32 0 2 0 C1.4140625 6.15234375 1.4140625 6.15234375 1 8 C0.01 8.495 0.01 8.495 -1 9 C-1.09765625 2.84765625 -1.09765625 2.84765625 -1 1 C-0.67 0.67 -0.34 0.34 0 0 Z " fill="#264425" transform="translate(503,270)"/>
<path d="M0 0 C1.9375 0.75 1.9375 0.75 4 2 C4.75 4.125 4.75 4.125 5 6 C3.68 5.67 2.36 5.34 1 5 C0.67 3.35 0.34 1.7 0 0 Z " fill="#50B153" transform="translate(226,258)"/>
<path d="M0 0 C2.4375 0.375 2.4375 0.375 5 1 C5.33 1.66 5.66 2.32 6 3 C6.99 3.33 7.98 3.66 9 4 C8.67 4.66 8.34 5.32 8 6 C1.125 2.25 1.125 2.25 0 0 Z " fill="#7B9B7C" transform="translate(322,153)"/>
<path d="" fill="#020001" transform="translate(0,0)"/>
<path d="" fill="#00FF00" transform="translate(0,0)"/>
<path d="" fill="#00FF00" transform="translate(0,0)"/>
</svg>
